<?xml version="1.0" encoding="UTF-8" standalone="no"?><svg xmlns="http://www.w3.org/2000/svg" xmlns:xlink="http://www.w3.org/1999/xlink" clip-rule="evenodd" stroke-miterlimit="10" viewBox="0 0 1920 1080"><desc>SVG generated by Keynote</desc><defs></defs><g transform="matrix(1.00, 0.00, -0.00, -1.00, 0.0, 1080.0)"><path d="M 0.0 1080.0 L 1920.0 1080.0 L 1920.0 0.0 L 0.0 0.0 Z M 0.0 1080.0 " fill="#000000"></path><image xlink:href="../../3F86FE51-31F8-4AAA-B9C0-C97B53490FFA/assets/5C4FA4730933A9E9D0E962F2ED3754BA.jpeg" width="371.00" height="340.00" transform="matrix(3.21, 0.00, -0.00, -3.21, 851.5, 1086.1)"></image><g><clipPath id="clip0x6180006a78c0"><path d="M 194.0 864.0 L 625.0 864.0 L 625.0 345.0 L 194.0 345.0 Z M 193.7 864.2 "></path></clipPath><g clip-path="url(#clip0x6180006a78c0)"><g><clipPath id="clip0x6180006a6fc0"><path d="M 591.2 347.2 C 591.6 349.1 583.3 349.3 470.9 350.0 C 404.3 350.4 353.3 350.4 337.1 350.0 C 328.3 349.8 325.1 350.2 323.7 351.9 C 322.7 353.0 320.9 354.0 319.6 354.0 C 317.3 354.0 313.8 358.3 312.5 362.6 C 312.0 364.4 309.6 427.5 309.6 441.0 C 309.5 443.6 309.0 446.5 308.4 447.4 C 307.7 448.3 307.0 451.0 306.8 453.3 C 306.5 455.7 305.7 458.2 305.0 459.0 C 304.3 459.7 303.7 461.4 303.7 462.7 C 303.7 466.7 287.3 480.6 276.0 486.1 C 270.1 489.0 262.6 493.6 259.3 496.3 C 255.9 499.2 252.4 501.0 251.2 500.6 C 249.8 500.0 249.4 500.4 250.0 501.9 C 250.5 503.4 249.4 505.0 246.8 506.6 C 244.6 508.0 240.7 511.5 238.1 514.4 C 235.6 517.3 232.7 519.6 231.8 519.4 C 230.9 519.2 230.3 520.1 230.5 521.3 C 230.7 522.5 228.4 526.4 225.5 530.0 C 220.6 536.1 216.4 542.7 215.2 546.2 C 215.0 547.0 212.3 552.6 209.2 558.6 C 206.2 564.7 203.3 571.7 202.8 574.3 C 202.3 577.0 201.3 579.8 200.6 580.8 C 199.9 581.7 198.7 585.8 197.9 590.0 C 197.1 594.2 195.8 601.2 194.9 605.5 C 191.5 623.2 195.5 654.8 204.2 679.6 C 207.8 689.9 207.9 690.3 207.9 735.3 C 207.9 760.2 208.0 781.6 208.1 782.7 C 208.1 783.9 208.7 802.6 209.3 824.2 C 209.9 845.8 210.5 863.7 210.6 864.1 C 210.8 864.4 222.9 864.2 237.6 863.6 C 252.4 863.1 278.3 862.3 295.2 861.9 C 312.1 861.5 329.1 860.7 333.0 860.2 L 340.0 859.2 L 340.0 852.8 C 341.5 828.4 340.7 768.4 338.5 760.9 C 338.1 759.5 338.6 757.4 339.5 756.2 C 340.9 754.5 340.8 753.6 338.8 751.4 C 336.6 749.0 336.1 743.5 334.9 709.6 C 334.2 688.1 334.0 667.4 334.4 663.6 C 335.6 654.2 332.7 643.0 328.3 640.2 C 322.0 636.0 317.8 622.5 321.1 616.6 C 322.1 614.9 322.9 612.9 323.0 612.3 C 323.0 611.7 324.0 610.5 325.1 609.8 C 326.3 609.0 326.7 608.4 326.0 608.4 C 325.4 608.4 325.6 607.4 326.6 606.2 C 328.3 604.2 333.7 604.0 373.6 604.9 C 398.4 605.4 451.6 605.7 491.8 605.7 C 532.0 605.6 567.7 606.1 571.1 606.6 C 574.5 607.2 580.8 607.4 585.2 607.0 C 589.5 606.6 595.2 606.7 597.9 607.2 C 601.1 607.9 604.6 607.5 607.8 606.1 C 614.2 603.5 625.5 593.1 623.5 591.8 C 622.4 591.1 622.2 578.6 622.8 550.0 C 624.8 460.0 625.6 382.6 624.6 374.0 C 624.4 372.1 624.1 368.4 624.0 365.9 C 623.8 363.3 622.4 360.1 620.7 358.5 C 619.1 356.9 618.1 355.0 618.6 354.3 C 619.1 353.5 618.3 353.1 616.9 353.5 C 615.4 353.9 613.2 352.9 611.7 351.2 C 610.2 349.6 607.5 348.3 605.7 348.3 C 603.9 348.3 602.1 347.7 601.6 346.9 C 600.3 344.7 590.8 345.1 591.2 347.2 "></path></clipPath><g clip-path="url(#clip0x6180006a6fc0)"><image xlink:href="../../3F86FE51-31F8-4AAA-B9C0-C97B53490FFA/assets/4BEC4757BFC105499C01438A3CB73F48.jpeg" width="810.00" height="900.00" transform="matrix(0.59, 0.00, -0.00, -0.59, 168.0, 869.9)"></image></g></g></g></g><text xml:space="preserve" font-family="Questrial-Regular,Questrial" font-size="56.0" fill="#FEFFFE" transform="matrix(1.00, 0.00, -0.00, -1.00, 237.5, 203.0)">C</text><text xml:space="preserve" font-family="Questrial-Regular,Questrial" font-size="56.0" fill="#FEFFFE" transform="matrix(1.00, 0.00, -0.00, -1.00, 276.2, 203.0)">a</text><text xml:space="preserve" font-family="Questrial-Regular,Questrial" font-size="56.0" fill="#FEFFFE" transform="matrix(1.00, 0.00, -0.00, -1.00, 309.5, 203.0)">m</text><text xml:space="preserve" font-family="Questrial-Regular,Questrial" font-size="56.0" fill="#FEFFFE" transform="matrix(1.00, 0.00, -0.00, -1.00, 358.1, 203.0)">e</text><text xml:space="preserve" font-family="Questrial-Regular,Questrial" font-size="56.0" fill="#FEFFFE" transform="matrix(1.00, 0.00, -0.00, -1.00, 389.3, 203.0)">r</text><text xml:space="preserve" font-family="Questrial-Regular,Questrial" font-size="56.0" fill="#FEFFFE" transform="matrix(1.00, 0.00, -0.00, -1.00, 407.9, 203.0)">a</text><text xml:space="preserve" font-family="Questrial-Regular,Questrial" font-size="56.0" fill="#FEFFFE" transform="matrix(1.00, 0.00, -0.00, -1.00, 441.2, 203.0)"> </text><text xml:space="preserve" font-family="Questrial-Regular,Questrial" font-size="56.0" fill="#FEFFFE" transform="matrix(1.00, 0.00, -0.00, -1.00, 453.1, 203.0)">S</text><text xml:space="preserve" font-family="Questrial-Regular,Questrial" font-size="56.0" fill="#FEFFFE" transform="matrix(1.00, 0.00, -0.00, -1.00, 487.6, 203.0)">e</text><text xml:space="preserve" font-family="Questrial-Regular,Questrial" font-size="56.0" fill="#FEFFFE" transform="matrix(1.00, 0.00, -0.00, -1.00, 518.8, 203.0)">n</text><text xml:space="preserve" font-family="Questrial-Regular,Questrial" font-size="56.0" fill="#FEFFFE" transform="matrix(1.00, 0.00, -0.00, -1.00, 550.5, 203.0)">s</text><text xml:space="preserve" font-family="Questrial-Regular,Questrial" font-size="56.0" fill="#FEFFFE" transform="matrix(1.00, 0.00, -0.00, -1.00, 577.4, 203.0)">o</text><text xml:space="preserve" font-family="Questrial-Regular,Questrial" font-size="56.0" fill="#FEFFFE" transform="matrix(1.00, 0.00, -0.00, -1.00, 609.0, 203.0)">r</text></g></svg>