<?xml version="1.0" encoding="UTF-8" standalone="no"?><svg xmlns="http://www.w3.org/2000/svg" xmlns:xlink="http://www.w3.org/1999/xlink" clip-rule="evenodd" stroke-miterlimit="10" viewBox="0 0 1920 1080"><desc>SVG generated by Keynote</desc><defs></defs><g transform="matrix(1.00, 0.00, -0.00, -1.00, 0.0, 1080.0)"><path d="M 0.0 1080.0 L 1920.0 1080.0 L 1920.0 0.0 L 0.0 0.0 Z M 0.0 1080.0 " fill="#FEFFFF"></path><g><clipPath id="clip0x608000eb8c60"><path d="M 945.0 1109.0 L 2168.0 1109.0 L 2168.0 -6.0 L 945.0 -6.0 Z M 945.4 1108.8 "></path></clipPath><g clip-path="url(#clip0x608000eb8c60)"><image xlink:href="0C0EA084E1AF2779F0E9D4EB7E3BC579.jpeg" width="585.00" height="445.00" transform="matrix(2.51, 0.00, -0.00, -2.51, 702.5, 1108.8)"></image></g></g><text xml:space="preserve" font-family="Questrial-Regular,Questrial" font-size="62.2" fill="#EE3B87" transform="matrix(1.00, 0.00, -0.00, -1.00, 133.4, 501.7)">o</text><text xml:space="preserve" font-family="Questrial-Regular,Questrial" font-size="62.2" fill="#EE3B87" transform="matrix(1.00, 0.00, -0.00, -1.00, 168.5, 501.7)">p</text><text xml:space="preserve" font-family="Questrial-Regular,Questrial" font-size="62.2" fill="#EE3B87" transform="matrix(1.00, 0.00, -0.00, -1.00, 205.4, 501.7)">e</text><text xml:space="preserve" font-family="Questrial-Regular,Questrial" font-size="62.2" fill="#EE3B87" transform="matrix(1.00, 0.00, -0.00, -1.00, 240.0, 501.7)">n</text><text xml:space="preserve" font-family="Questrial-Regular,Questrial" font-size="62.2" fill="#EE3B87" transform="matrix(1.00, 0.00, -0.00, -1.00, 274.7, 501.7)">F</text><text xml:space="preserve" font-family="Questrial-Regular,Questrial" font-size="62.2" fill="#EE3B87" transform="matrix(1.00, 0.00, -0.00, -1.00, 309.4, 501.7)">r</text><text xml:space="preserve" font-family="Questrial-Regular,Questrial" font-size="62.2" fill="#EE3B87" transform="matrix(1.00, 0.00, -0.00, -1.00, 330.0, 501.7)">a</text><text xml:space="preserve" font-family="Questrial-Regular,Questrial" font-size="62.2" fill="#EE3B87" transform="matrix(1.00, 0.00, -0.00, -1.00, 367.0, 501.7)">m</text><text xml:space="preserve" font-family="Questrial-Regular,Questrial" font-size="62.2" fill="#EE3B87" transform="matrix(1.00, 0.00, -0.00, -1.00, 421.0, 501.7)">e</text><text xml:space="preserve" font-family="Questrial-Regular,Questrial" font-size="62.2" fill="#EE3B87" transform="matrix(1.00, 0.00, -0.00, -1.00, 455.6, 501.7)">w</text><text xml:space="preserve" font-family="Questrial-Regular,Questrial" font-size="62.2" fill="#EE3B87" transform="matrix(1.00, 0.00, -0.00, -1.00, 502.2, 501.7)">o</text><text xml:space="preserve" font-family="Questrial-Regular,Questrial" font-size="62.2" fill="#EE3B87" transform="matrix(1.00, 0.00, -0.00, -1.00, 537.3, 501.7)">r</text><text xml:space="preserve" font-family="Questrial-Regular,Questrial" font-size="62.2" fill="#EE3B87" transform="matrix(1.00, 0.00, -0.00, -1.00, 558.7, 501.7)">k</text><text xml:space="preserve" font-family="Questrial-Regular,Questrial" font-size="62.2" fill="#EE3B87" transform="matrix(1.00, 0.00, -0.00, -1.00, 589.1, 501.7)">s</text><text xml:space="preserve" font-family="Questrial-Regular,Questrial" font-size="62.2" fill="#EE3B87" transform="matrix(1.00, 0.00, -0.00, -1.00, 619.0, 501.7)"> </text><text xml:space="preserve" font-family="LucidaGrande,Lucida Grande" font-size="62.2" fill="#EE3B87" transform="matrix(1.00, 0.00, -0.00, -1.00, 632.3, 501.7)"> </text><g><clipPath id="clip0x600000cb5120"><path d="M 117.4 424.9 L 952.1 424.9 L 952.1 554.7 L 117.4 554.7 Z M 117.4 424.9 "></path></clipPath><g clip-path="url(#clip0x600000cb5120)"><text xml:space="preserve" font-family="Questrial-Regular,Questrial" font-size="62.2" fill="#EE3B87" transform="matrix(1.00, 0.00, -0.00, -1.00, 133.4, 437.7)">W</text><text xml:space="preserve" font-family="Questrial-Regular,Questrial" font-size="62.2" fill="#EE3B87" transform="matrix(1.00, 0.00, -0.00, -1.00, 190.9, 437.7)">o</text><text xml:space="preserve" font-family="Questrial-Regular,Questrial" font-size="62.2" fill="#EE3B87" transform="matrix(1.00, 0.00, -0.00, -1.00, 226.0, 437.7)">r</text><text xml:space="preserve" font-family="Questrial-Regular,Questrial" font-size="62.2" fill="#EE3B87" transform="matrix(1.00, 0.00, -0.00, -1.00, 247.4, 437.7)">k</text><text xml:space="preserve" font-family="Questrial-Regular,Questrial" font-size="62.2" fill="#EE3B87" transform="matrix(1.00, 0.00, -0.00, -1.00, 277.8, 437.7)">s</text><text xml:space="preserve" font-family="Questrial-Regular,Questrial" font-size="62.2" fill="#EE3B87" transform="matrix(1.00, 0.00, -0.00, -1.00, 307.7, 437.7)">h</text><text xml:space="preserve" font-family="Questrial-Regular,Questrial" font-size="62.2" fill="#EE3B87" transform="matrix(1.00, 0.00, -0.00, -1.00, 342.9, 437.7)">o</text><text xml:space="preserve" font-family="Questrial-Regular,Questrial" font-size="62.2" fill="#EE3B87" transform="matrix(1.00, 0.00, -0.00, -1.00, 378.0, 437.7)">p</text></g></g><text xml:space="preserve" font-family="Questrial-Regular,Questrial" font-size="56.0" fill="#000000" transform="matrix(1.00, 0.00, -0.00, -1.00, 134.1, 334.1)">C</text><text xml:space="preserve" font-family="Questrial-Regular,Questrial" font-size="56.0" fill="#000000" transform="matrix(1.00, 0.00, -0.00, -1.00, 172.7, 334.1)">o</text><text xml:space="preserve" font-family="Questrial-Regular,Questrial" font-size="56.0" fill="#000000" transform="matrix(1.00, 0.00, -0.00, -1.00, 204.3, 334.1)">m</text><text xml:space="preserve" font-family="Questrial-Regular,Questrial" font-size="56.0" fill="#000000" transform="matrix(1.00, 0.00, -0.00, -1.00, 252.9, 334.1)">p</text><text xml:space="preserve" font-family="Questrial-Regular,Questrial" font-size="56.0" fill="#000000" transform="matrix(1.00, 0.00, -0.00, -1.00, 286.2, 334.1)">u</text><text xml:space="preserve" font-family="Questrial-Regular,Questrial" font-size="56.0" fill="#000000" transform="matrix(1.00, 0.00, -0.00, -1.00, 317.9, 334.1)">t</text><text xml:space="preserve" font-family="Questrial-Regular,Questrial" font-size="56.0" fill="#000000" transform="matrix(1.00, 0.00, -0.00, -1.00, 335.6, 334.1)">e</text><text xml:space="preserve" font-family="Questrial-Regular,Questrial" font-size="56.0" fill="#000000" transform="matrix(1.00, 0.00, -0.00, -1.00, 366.8, 334.1)">r</text><text xml:space="preserve" font-family="Questrial-Regular,Questrial" font-size="56.0" fill="#000000" transform="matrix(1.00, 0.00, -0.00, -1.00, 386.1, 334.1)"> </text><text xml:space="preserve" font-family="Questrial-Regular,Questrial" font-size="56.0" fill="#000000" transform="matrix(1.00, 0.00, -0.00, -1.00, 398.0, 334.1)">V</text><text xml:space="preserve" font-family="Questrial-Regular,Questrial" font-size="56.0" fill="#000000" transform="matrix(1.00, 0.00, -0.00, -1.00, 433.2, 334.1)">i</text><text xml:space="preserve" font-family="Questrial-Regular,Questrial" font-size="56.0" fill="#000000" transform="matrix(1.00, 0.00, -0.00, -1.00, 444.7, 334.1)">s</text><text xml:space="preserve" font-family="Questrial-Regular,Questrial" font-size="56.0" fill="#000000" transform="matrix(1.00, 0.00, -0.00, -1.00, 471.7, 334.1)">i</text><text xml:space="preserve" font-family="Questrial-Regular,Questrial" font-size="56.0" fill="#000000" transform="matrix(1.00, 0.00, -0.00, -1.00, 483.2, 334.1)">o</text><text xml:space="preserve" font-family="Questrial-Regular,Questrial" font-size="56.0" fill="#000000" transform="matrix(1.00, 0.00, -0.00, -1.00, 514.7, 334.1)">n</text><text xml:space="preserve" font-family="Questrial-Regular,Questrial" font-size="56.0" fill="#000000" transform="matrix(1.00, 0.00, -0.00, -1.00, 546.4, 334.1)"> </text><text xml:space="preserve" font-family="Questrial-Regular,Questrial" font-size="56.0" fill="#000000" transform="matrix(1.00, 0.00, -0.00, -1.00, 558.4, 334.1)">1</text><text xml:space="preserve" font-family="Questrial-Regular,Questrial" font-size="56.0" fill="#000000" transform="matrix(1.00, 0.00, -0.00, -1.00, 589.2, 334.1)">0</text><text xml:space="preserve" font-family="Questrial-Regular,Questrial" font-size="56.0" fill="#000000" transform="matrix(1.00, 0.00, -0.00, -1.00, 620.0, 334.1)">1</text><text xml:space="preserve" font-family="Questrial-Regular,Questrial" font-size="34.0" fill="#000000" transform="matrix(1.00, 0.00, -0.00, -1.00, 138.3, 145.2)">F</text><text xml:space="preserve" font-family="Questrial-Regular,Questrial" font-size="34.0" fill="#000000" transform="matrix(1.00, 0.00, -0.00, -1.00, 158.0, 145.2)">i</text><text xml:space="preserve" font-family="Questrial-Regular,Questrial" font-size="34.0" fill="#000000" transform="matrix(1.00, 0.00, -0.00, -1.00, 165.0, 145.2)">r</text><text xml:space="preserve" font-family="Questrial-Regular,Questrial" font-size="34.0" fill="#000000" transform="matrix(1.00, 0.00, -0.00, -1.00, 176.7, 145.2)">m</text><text xml:space="preserve" font-family="Questrial-Regular,Questrial" font-size="34.0" fill="#000000" transform="matrix(1.00, 0.00, -0.00, -1.00, 206.2, 145.2)"> </text><text xml:space="preserve" font-family="Questrial-Regular,Questrial" font-size="34.0" fill="#000000" transform="matrix(1.00, 0.00, -0.00, -1.00, 213.4, 145.2)">R</text><text xml:space="preserve" font-family="Questrial-Regular,Questrial" font-size="34.0" fill="#000000" transform="matrix(1.00, 0.00, -0.00, -1.00, 235.8, 145.2)">e</text><text xml:space="preserve" font-family="Questrial-Regular,Questrial" font-size="34.0" fill="#000000" transform="matrix(1.00, 0.00, -0.00, -1.00, 254.7, 145.2)">e</text><text xml:space="preserve" font-family="Questrial-Regular,Questrial" font-size="34.0" fill="#000000" transform="matrix(1.00, 0.00, -0.00, -1.00, 273.7, 145.2)">d</text><text xml:space="preserve" font-family="Questrial-Regular,Questrial" font-size="34.0" fill="#000000" transform="matrix(1.00, 0.00, -0.00, -1.00, 293.9, 145.2)"> </text><text xml:space="preserve" font-family="Questrial-Regular,Questrial" font-size="34.0" fill="#000000" transform="matrix(1.00, 0.00, -0.00, -1.00, 301.1, 145.2)">T</text><text xml:space="preserve" font-family="Questrial-Regular,Questrial" font-size="34.0" fill="#000000" transform="matrix(1.00, 0.00, -0.00, -1.00, 317.0, 145.2)">o</text><text xml:space="preserve" font-family="Questrial-Regular,Questrial" font-size="34.0" fill="#000000" transform="matrix(1.00, 0.00, -0.00, -1.00, 335.9, 145.2)">t</text><text xml:space="preserve" font-family="Questrial-Regular,Questrial" font-size="34.0" fill="#000000" transform="matrix(1.00, 0.00, -0.00, -1.00, 347.0, 145.2)">h</text><text xml:space="preserve" font-family="Questrial-Regular,Questrial" font-size="34.0" fill="#000000" transform="matrix(1.00, 0.00, -0.00, -1.00, 366.2, 145.2)">o</text><text xml:space="preserve" font-family="Questrial-Regular,Questrial" font-size="34.0" fill="#000000" transform="matrix(1.00, 0.00, -0.00, -1.00, 385.4, 145.2)">n</text><text xml:space="preserve" font-family="Questrial-Regular,Questrial" font-size="34.0" fill="#000000" transform="matrix(1.00, 0.00, -0.00, -1.00, 404.6, 145.2)">g</text><text xml:space="preserve" font-family="Questrial-Regular,Questrial" font-size="34.0" fill="#000000" transform="matrix(1.00, 0.00, -0.00, -1.00, 424.9, 145.2)"> </text><text xml:space="preserve" font-family="Questrial-Regular,Questrial" font-size="28.0" fill="#000000" transform="matrix(1.00, 0.00, -0.00, -1.00, 138.3, 114.9)">@</text><text xml:space="preserve" font-family="Questrial-Regular,Questrial" font-size="28.0" fill="#000000" transform="matrix(1.00, 0.00, -0.00, -1.00, 162.2, 114.9)">f</text><text xml:space="preserve" font-family="Questrial-Regular,Questrial" font-size="28.0" fill="#000000" transform="matrix(1.00, 0.00, -0.00, -1.00, 170.8, 114.9)">i</text><text xml:space="preserve" font-family="Questrial-Regular,Questrial" font-size="28.0" fill="#000000" transform="matrix(1.00, 0.00, -0.00, -1.00, 176.5, 114.9)">r</text><text xml:space="preserve" font-family="Questrial-Regular,Questrial" font-size="28.0" fill="#000000" transform="matrix(1.00, 0.00, -0.00, -1.00, 186.2, 114.9)">m</text><text xml:space="preserve" font-family="Questrial-Regular,Questrial" font-size="28.0" fill="#000000" transform="matrix(1.00, 0.00, -0.00, -1.00, 210.5, 114.9)">r</text><text xml:space="preserve" font-family="Questrial-Regular,Questrial" font-size="28.0" fill="#000000" transform="matrix(1.00, 0.00, -0.00, -1.00, 219.8, 114.9)">e</text><text xml:space="preserve" font-family="Questrial-Regular,Questrial" font-size="28.0" fill="#000000" transform="matrix(1.00, 0.00, -0.00, -1.00, 235.4, 114.9)">a</text><text xml:space="preserve" font-family="Questrial-Regular,Questrial" font-size="28.0" fill="#000000" transform="matrix(1.00, 0.00, -0.00, -1.00, 252.0, 114.9)">d</text><text xml:space="preserve" font-family="Questrial-Regular,Questrial" font-size="28.0" fill="#000000" transform="matrix(1.00, 0.00, -0.00, -1.00, 268.7, 114.9)"> </text><text xml:space="preserve" font-family="Questrial-Regular,Questrial" font-size="28.0" fill="#000000" transform="matrix(1.00, 0.00, -0.00, -1.00, 138.3, 85.9)">f</text><text xml:space="preserve" font-family="Questrial-Regular,Questrial" font-size="28.0" fill="#000000" transform="matrix(1.00, 0.00, -0.00, -1.00, 146.9, 85.9)">i</text><text xml:space="preserve" font-family="Questrial-Regular,Questrial" font-size="28.0" fill="#000000" transform="matrix(1.00, 0.00, -0.00, -1.00, 152.7, 85.9)">r</text><text xml:space="preserve" font-family="Questrial-Regular,Questrial" font-size="28.0" fill="#000000" transform="matrix(1.00, 0.00, -0.00, -1.00, 162.3, 85.9)">m</text><text xml:space="preserve" font-family="Questrial-Regular,Questrial" font-size="28.0" fill="#000000" transform="matrix(1.00, 0.00, -0.00, -1.00, 186.6, 85.9)">r</text><text xml:space="preserve" font-family="Questrial-Regular,Questrial" font-size="28.0" fill="#000000" transform="matrix(1.00, 0.00, -0.00, -1.00, 195.9, 85.9)">e</text><text xml:space="preserve" font-family="Questrial-Regular,Questrial" font-size="28.0" fill="#000000" transform="matrix(1.00, 0.00, -0.00, -1.00, 211.5, 85.9)">a</text><text xml:space="preserve" font-family="Questrial-Regular,Questrial" font-size="28.0" fill="#000000" transform="matrix(1.00, 0.00, -0.00, -1.00, 228.2, 85.9)">d</text><text xml:space="preserve" font-family="Questrial-Regular,Questrial" font-size="28.0" fill="#000000" transform="matrix(1.00, 0.00, -0.00, -1.00, 244.8, 85.9)">.</text><text xml:space="preserve" font-family="Questrial-Regular,Questrial" font-size="28.0" fill="#000000" transform="matrix(1.00, 0.00, -0.00, -1.00, 250.5, 85.9)">c</text><text xml:space="preserve" font-family="Questrial-Regular,Questrial" font-size="28.0" fill="#000000" transform="matrix(1.00, 0.00, -0.00, -1.00, 265.8, 85.9)">o</text><text xml:space="preserve" font-family="Questrial-Regular,Questrial" font-size="28.0" fill="#000000" transform="matrix(1.00, 0.00, -0.00, -1.00, 281.6, 85.9)">m</text><g><clipPath id="clip0x600000ca11a0"><path d="M 137.3 81.1 L 305.9 81.1 L 305.9 85.0 L 137.3 85.0 Z M 137.3 81.1 "></path></clipPath><g clip-path="url(#clip0x600000ca11a0)"><path d="M 5.6 95.7 L 173.1 95.7 " fill="none" stroke="#000000" stroke-width="1.90" transform="matrix(1.00, 0.00, 0.00, -1.00, 132.7, 178.7)"></path></g></g><image xlink:href="DC3A0860000A0952FA5D83CFF963F813.png" width="82.00" height="99.00" transform="matrix(2.01, 0.00, -0.00, -2.01, 514.7, 981.1)"></image><image xlink:href="D8C2399A8B3AF09FB05A418AD7386C5B.png" width="458.00" height="242.00" transform="matrix(0.71, 0.00, -0.00, -0.71, 128.5, 972.7)"></image></g></svg>