<?xml version="1.0" encoding="UTF-8" standalone="no"?><svg xmlns="http://www.w3.org/2000/svg" xmlns:xlink="http://www.w3.org/1999/xlink" clip-rule="evenodd" stroke-miterlimit="10" viewBox="0 0 1920 1080"><desc>SVG generated by Keynote</desc><defs></defs><g transform="matrix(1.00, 0.00, -0.00, -1.00, 0.0, 1080.0)"><path d="M 0.0 1080.0 L 1920.0 1080.0 L 1920.0 0.0 L 0.0 0.0 Z M 0.0 1080.0 " fill="#FEFFFF"></path><text xml:space="preserve" font-family="Questrial-Regular,Questrial" font-size="56.0" fill="#000000" transform="matrix(1.00, 0.00, -0.00, -1.00, 347.1, 529.2)">h</text><text xml:space="preserve" font-family="Questrial-Regular,Questrial" font-size="56.0" fill="#000000" transform="matrix(1.00, 0.00, -0.00, -1.00, 378.8, 529.2)">o</text><text xml:space="preserve" font-family="Questrial-Regular,Questrial" font-size="56.0" fill="#000000" transform="matrix(1.00, 0.00, -0.00, -1.00, 410.2, 529.2)">w</text><text xml:space="preserve" font-family="Questrial-Regular,Questrial" font-size="56.0" fill="#000000" transform="matrix(1.00, 0.00, -0.00, -1.00, 452.4, 529.2)"> </text><text xml:space="preserve" font-family="Questrial-Regular,Questrial" font-size="56.0" fill="#000000" transform="matrix(1.00, 0.00, -0.00, -1.00, 464.3, 529.2)">c</text><text xml:space="preserve" font-family="Questrial-Regular,Questrial" font-size="56.0" fill="#000000" transform="matrix(1.00, 0.00, -0.00, -1.00, 494.8, 529.2)">o</text><text xml:space="preserve" font-family="Questrial-Regular,Questrial" font-size="56.0" fill="#000000" transform="matrix(1.00, 0.00, -0.00, -1.00, 526.4, 529.2)">m</text><text xml:space="preserve" font-family="Questrial-Regular,Questrial" font-size="56.0" fill="#000000" transform="matrix(1.00, 0.00, -0.00, -1.00, 575.0, 529.2)">p</text><text xml:space="preserve" font-family="Questrial-Regular,Questrial" font-size="56.0" fill="#000000" transform="matrix(1.00, 0.00, -0.00, -1.00, 608.3, 529.2)">u</text><text xml:space="preserve" font-family="Questrial-Regular,Questrial" font-size="56.0" fill="#000000" transform="matrix(1.00, 0.00, -0.00, -1.00, 639.9, 529.2)">t</text><text xml:space="preserve" font-family="Questrial-Regular,Questrial" font-size="56.0" fill="#000000" transform="matrix(1.00, 0.00, -0.00, -1.00, 657.6, 529.2)">e</text><text xml:space="preserve" font-family="Questrial-Regular,Questrial" font-size="56.0" fill="#000000" transform="matrix(1.00, 0.00, -0.00, -1.00, 688.8, 529.2)">r</text><text xml:space="preserve" font-family="Questrial-Regular,Questrial" font-size="56.0" fill="#000000" transform="matrix(1.00, 0.00, -0.00, -1.00, 708.2, 529.2)"> </text><text xml:space="preserve" font-family="Questrial-Regular,Questrial" font-size="56.0" fill="#000000" transform="matrix(1.00, 0.00, -0.00, -1.00, 720.1, 529.2)">t</text><text xml:space="preserve" font-family="Questrial-Regular,Questrial" font-size="56.0" fill="#000000" transform="matrix(1.00, 0.00, -0.00, -1.00, 738.3, 529.2)">h</text><text xml:space="preserve" font-family="Questrial-Regular,Questrial" font-size="56.0" fill="#000000" transform="matrix(1.00, 0.00, -0.00, -1.00, 770.0, 529.2)">i</text><text xml:space="preserve" font-family="Questrial-Regular,Questrial" font-size="56.0" fill="#000000" transform="matrix(1.00, 0.00, -0.00, -1.00, 781.5, 529.2)">n</text><text xml:space="preserve" font-family="Questrial-Regular,Questrial" font-size="56.0" fill="#000000" transform="matrix(1.00, 0.00, -0.00, -1.00, 813.2, 529.2)">k</text><text xml:space="preserve" font-family="Questrial-Regular,Questrial" font-size="56.0" fill="#000000" transform="matrix(1.00, 0.00, -0.00, -1.00, 841.3, 529.2)"> </text><text xml:space="preserve" font-family="Questrial-Regular,Questrial" font-size="56.0" fill="#000000" transform="matrix(1.00, 0.00, -0.00, -1.00, 853.3, 529.2)">a</text><text xml:space="preserve" font-family="Questrial-Regular,Questrial" font-size="56.0" fill="#000000" transform="matrix(1.00, 0.00, -0.00, -1.00, 886.6, 529.2)">b</text><text xml:space="preserve" font-family="Questrial-Regular,Questrial" font-size="56.0" fill="#000000" transform="matrix(1.00, 0.00, -0.00, -1.00, 919.8, 529.2)">o</text><text xml:space="preserve" font-family="Questrial-Regular,Questrial" font-size="56.0" fill="#000000" transform="matrix(1.00, 0.00, -0.00, -1.00, 951.4, 529.2)">u</text><text xml:space="preserve" font-family="Questrial-Regular,Questrial" font-size="56.0" fill="#000000" transform="matrix(1.00, 0.00, -0.00, -1.00, 983.1, 529.2)">t</text><text xml:space="preserve" font-family="Questrial-Regular,Questrial" font-size="56.0" fill="#000000" transform="matrix(1.00, 0.00, -0.00, -1.00, 1001.4, 529.2)"> </text><text xml:space="preserve" font-family="Questrial-Regular,Questrial" font-size="56.0" fill="#000000" transform="matrix(1.00, 0.00, -0.00, -1.00, 1013.3, 529.2)">p</text><text xml:space="preserve" font-family="Questrial-Regular,Questrial" font-size="56.0" fill="#000000" transform="matrix(1.00, 0.00, -0.00, -1.00, 1046.6, 529.2)">i</text><text xml:space="preserve" font-family="Questrial-Regular,Questrial" font-size="56.0" fill="#000000" transform="matrix(1.00, 0.00, -0.00, -1.00, 1058.0, 529.2)">x</text><text xml:space="preserve" font-family="Questrial-Regular,Questrial" font-size="56.0" fill="#000000" transform="matrix(1.00, 0.00, -0.00, -1.00, 1083.8, 529.2)">e</text><text xml:space="preserve" font-family="Questrial-Regular,Questrial" font-size="56.0" fill="#000000" transform="matrix(1.00, 0.00, -0.00, -1.00, 1115.0, 529.2)">l</text></g></svg>