<?xml version="1.0" encoding="UTF-8" standalone="no"?><svg xmlns="http://www.w3.org/2000/svg" xmlns:xlink="http://www.w3.org/1999/xlink" clip-rule="evenodd" stroke-miterlimit="10" viewBox="0 0 1920 1080"><desc>SVG generated by Keynote</desc><defs></defs><g transform="matrix(1.00, 0.00, -0.00, -1.00, 0.0, 1080.0)"><path d="M 0.0 1080.0 L 1920.0 1080.0 L 1920.0 0.0 L 0.0 0.0 Z M 0.0 1080.0 " fill="#000000"></path><image xlink:href="../../90344D3F-93FD-4D4E-AE5B-78A42C16A3C5/assets/D4F1290A7F0F89BD7EA7C21ACA675272.jpeg" width="2139.00" height="1422.00" transform="matrix(0.92, 0.00, -0.00, -0.92, -25.6, 1195.2)"></image><text xml:space="preserve" font-family="AvenirNext-Regular,Avenir Next" font-size="50.0" fill="#FEFFFE" transform="matrix(1.00, 0.00, -0.00, -1.00, 1578.1, 32.3)">@</text><text xml:space="preserve" font-family="AvenirNext-Regular,Avenir Next" font-size="50.0" fill="#FEFFFE" transform="matrix(1.00, 0.00, -0.00, -1.00, 1618.1, 32.3)">o</text><text xml:space="preserve" font-family="AvenirNext-Regular,Avenir Next" font-size="50.0" fill="#FEFFFE" transform="matrix(1.00, 0.00, -0.00, -1.00, 1648.6, 32.3)">f</text><text xml:space="preserve" font-family="AvenirNext-Regular,Avenir Next" font-size="50.0" fill="#FEFFFE" transform="matrix(1.00, 0.00, -0.00, -1.00, 1663.4, 32.3)">W</text><text xml:space="preserve" font-family="AvenirNext-Regular,Avenir Next" font-size="50.0" fill="#FEFFFE" transform="matrix(1.00, 0.00, -0.00, -1.00, 1710.2, 32.3)">o</text><text xml:space="preserve" font-family="AvenirNext-Regular,Avenir Next" font-size="50.0" fill="#FEFFFE" transform="matrix(1.00, 0.00, -0.00, -1.00, 1740.7, 32.3)">r</text><text xml:space="preserve" font-family="AvenirNext-Regular,Avenir Next" font-size="50.0" fill="#FEFFFE" transform="matrix(1.00, 0.00, -0.00, -1.00, 1758.7, 32.3)">k</text><text xml:space="preserve" font-family="AvenirNext-Regular,Avenir Next" font-size="50.0" fill="#FEFFFE" transform="matrix(1.00, 0.00, -0.00, -1.00, 1783.9, 32.3)">s</text><text xml:space="preserve" font-family="AvenirNext-Regular,Avenir Next" font-size="50.0" fill="#FEFFFE" transform="matrix(1.00, 0.00, -0.00, -1.00, 1806.1, 32.3)">h</text><text xml:space="preserve" font-family="AvenirNext-Regular,Avenir Next" font-size="50.0" fill="#FEFFFE" transform="matrix(1.00, 0.00, -0.00, -1.00, 1835.3, 32.3)">o</text><text xml:space="preserve" font-family="AvenirNext-Regular,Avenir Next" font-size="50.0" fill="#FEFFFE" transform="matrix(1.00, 0.00, -0.00, -1.00, 1865.8, 32.3)">p</text></g></svg>