<?xml version="1.0" encoding="UTF-8" standalone="no"?><svg xmlns="http://www.w3.org/2000/svg" xmlns:xlink="http://www.w3.org/1999/xlink" clip-rule="evenodd" stroke-miterlimit="10" viewBox="0 0 1920 1080"><desc>SVG generated by Keynote</desc><defs></defs><g transform="matrix(1.00, 0.00, -0.00, -1.00, 0.0, 1080.0)"><path d="M 0.0 1080.0 L 1920.0 1080.0 L 1920.0 0.0 L 0.0 0.0 Z M 0.0 1080.0 " fill="#FEFFFF"></path><text xml:space="preserve" font-family="Questrial-Regular,Questrial" font-size="56.0" fill="#000000" transform="matrix(1.00, 0.00, -0.00, -1.00, 739.1, 529.2)">o</text><text xml:space="preserve" font-family="Questrial-Regular,Questrial" font-size="56.0" fill="#000000" transform="matrix(1.00, 0.00, -0.00, -1.00, 770.7, 529.2)">p</text><text xml:space="preserve" font-family="Questrial-Regular,Questrial" font-size="56.0" fill="#000000" transform="matrix(1.00, 0.00, -0.00, -1.00, 804.0, 529.2)">e</text><text xml:space="preserve" font-family="Questrial-Regular,Questrial" font-size="56.0" fill="#000000" transform="matrix(1.00, 0.00, -0.00, -1.00, 835.1, 529.2)">n</text><text xml:space="preserve" font-family="Questrial-Regular,Questrial" font-size="56.0" fill="#000000" transform="matrix(1.00, 0.00, -0.00, -1.00, 866.4, 529.2)">F</text><text xml:space="preserve" font-family="Questrial-Regular,Questrial" font-size="56.0" fill="#000000" transform="matrix(1.00, 0.00, -0.00, -1.00, 897.6, 529.2)">r</text><text xml:space="preserve" font-family="Questrial-Regular,Questrial" font-size="56.0" fill="#000000" transform="matrix(1.00, 0.00, -0.00, -1.00, 916.2, 529.2)">a</text><text xml:space="preserve" font-family="Questrial-Regular,Questrial" font-size="56.0" fill="#000000" transform="matrix(1.00, 0.00, -0.00, -1.00, 949.6, 529.2)">m</text><text xml:space="preserve" font-family="Questrial-Regular,Questrial" font-size="56.0" fill="#000000" transform="matrix(1.00, 0.00, -0.00, -1.00, 998.2, 529.2)">e</text><text xml:space="preserve" font-family="Questrial-Regular,Questrial" font-size="56.0" fill="#000000" transform="matrix(1.00, 0.00, -0.00, -1.00, 1029.4, 529.2)">w</text><text xml:space="preserve" font-family="Questrial-Regular,Questrial" font-size="56.0" fill="#000000" transform="matrix(1.00, 0.00, -0.00, -1.00, 1071.4, 529.2)">o</text><text xml:space="preserve" font-family="Questrial-Regular,Questrial" font-size="56.0" fill="#000000" transform="matrix(1.00, 0.00, -0.00, -1.00, 1102.9, 529.2)">r</text><text xml:space="preserve" font-family="Questrial-Regular,Questrial" font-size="56.0" fill="#000000" transform="matrix(1.00, 0.00, -0.00, -1.00, 1122.3, 529.2)">k</text><text xml:space="preserve" font-family="Questrial-Regular,Questrial" font-size="56.0" fill="#000000" transform="matrix(1.00, 0.00, -0.00, -1.00, 1149.6, 529.2)">s</text></g></svg>