<?xml version="1.0" encoding="UTF-8" standalone="no"?><svg xmlns="http://www.w3.org/2000/svg" xmlns:xlink="http://www.w3.org/1999/xlink" clip-rule="evenodd" stroke-miterlimit="10" viewBox="0 0 1920 1080"><desc>SVG generated by Keynote</desc><defs></defs><g transform="matrix(1.00, 0.00, -0.00, -1.00, 0.0, 1080.0)"><path d="M 0.0 1080.0 L 1920.0 1080.0 L 1920.0 0.0 L 0.0 0.0 Z M 0.0 1080.0 " fill="#000000"></path><image xlink:href="../../5B4A39E9-96B3-4A48-BD16-6158D372E6B6/assets/217BC7BAF0A018B75FD9F59A22995439.jpeg" width="1346.00" height="494.00" transform="matrix(1.43, 0.00, -0.00, -1.43, 0.2, 892.3)"></image><text xml:space="preserve" font-family="AvenirNext-Regular,Avenir Next" font-size="35.0" fill="#000000" transform="matrix(1.00, 0.00, -0.00, -1.00, 850.0, 696.8)">T</text><text xml:space="preserve" font-family="AvenirNext-Regular,Avenir Next" font-size="35.0" fill="#000000" transform="matrix(1.00, 0.00, -0.00, -1.00, 869.4, 696.8)">h</text><text xml:space="preserve" font-family="AvenirNext-Regular,Avenir Next" font-size="35.0" fill="#000000" transform="matrix(1.00, 0.00, -0.00, -1.00, 889.8, 696.8)">i</text><text xml:space="preserve" font-family="AvenirNext-Regular,Avenir Next" font-size="35.0" fill="#000000" transform="matrix(1.00, 0.00, -0.00, -1.00, 898.5, 696.8)">n</text><text xml:space="preserve" font-family="AvenirNext-Regular,Avenir Next" font-size="35.0" fill="#000000" transform="matrix(1.00, 0.00, -0.00, -1.00, 918.9, 696.8)">k</text><text xml:space="preserve" font-family="AvenirNext-Regular,Avenir Next" font-size="35.0" fill="#000000" transform="matrix(1.00, 0.00, -0.00, -1.00, 936.7, 696.8)"> </text><text xml:space="preserve" font-family="AvenirNext-Regular,Avenir Next" font-size="35.0" fill="#000000" transform="matrix(1.00, 0.00, -0.00, -1.00, 945.5, 696.8)">o</text><text xml:space="preserve" font-family="AvenirNext-Regular,Avenir Next" font-size="35.0" fill="#000000" transform="matrix(1.00, 0.00, -0.00, -1.00, 966.8, 696.8)">f</text><text xml:space="preserve" font-family="AvenirNext-Regular,Avenir Next" font-size="35.0" fill="#000000" transform="matrix(1.00, 0.00, -0.00, -1.00, 978.0, 696.8)"> </text><text xml:space="preserve" font-family="AvenirNext-Regular,Avenir Next" font-size="35.0" fill="#000000" transform="matrix(1.00, 0.00, -0.00, -1.00, 986.8, 696.8)">a</text><text xml:space="preserve" font-family="AvenirNext-Regular,Avenir Next" font-size="35.0" fill="#000000" transform="matrix(1.00, 0.00, -0.00, -1.00, 1005.4, 696.8)">l</text><text xml:space="preserve" font-family="AvenirNext-Regular,Avenir Next" font-size="35.0" fill="#000000" transform="matrix(1.00, 0.00, -0.00, -1.00, 1014.3, 696.8)">l</text><text xml:space="preserve" font-family="AvenirNext-Regular,Avenir Next" font-size="35.0" fill="#000000" transform="matrix(1.00, 0.00, -0.00, -1.00, 1023.1, 696.8)"> </text><text xml:space="preserve" font-family="AvenirNext-Regular,Avenir Next" font-size="35.0" fill="#000000" transform="matrix(1.00, 0.00, -0.00, -1.00, 1031.8, 696.8)">y</text><text xml:space="preserve" font-family="AvenirNext-Regular,Avenir Next" font-size="35.0" fill="#000000" transform="matrix(1.00, 0.00, -0.00, -1.00, 1048.9, 696.8)">o</text><text xml:space="preserve" font-family="AvenirNext-Regular,Avenir Next" font-size="35.0" fill="#000000" transform="matrix(1.00, 0.00, -0.00, -1.00, 1070.3, 696.8)">u</text><text xml:space="preserve" font-family="AvenirNext-Regular,Avenir Next" font-size="35.0" fill="#000000" transform="matrix(1.00, 0.00, -0.00, -1.00, 1090.6, 696.8)">r</text><text xml:space="preserve" font-family="AvenirNext-Regular,Avenir Next" font-size="35.0" fill="#000000" transform="matrix(1.00, 0.00, -0.00, -1.00, 1103.2, 696.8)"> </text><text xml:space="preserve" font-family="AvenirNext-Regular,Avenir Next" font-size="35.0" fill="#000000" transform="matrix(1.00, 0.00, -0.00, -1.00, 1112.0, 696.8)">m</text><text xml:space="preserve" font-family="AvenirNext-Regular,Avenir Next" font-size="35.0" fill="#000000" transform="matrix(1.00, 0.00, -0.00, -1.00, 1142.9, 696.8)">o</text><text xml:space="preserve" font-family="AvenirNext-Regular,Avenir Next" font-size="35.0" fill="#000000" transform="matrix(1.00, 0.00, -0.00, -1.00, 1164.3, 696.8)">v</text><text xml:space="preserve" font-family="AvenirNext-Regular,Avenir Next" font-size="35.0" fill="#000000" transform="matrix(1.00, 0.00, -0.00, -1.00, 1181.4, 696.8)">e</text><text xml:space="preserve" font-family="AvenirNext-Regular,Avenir Next" font-size="35.0" fill="#000000" transform="matrix(1.00, 0.00, -0.00, -1.00, 1201.4, 696.8)">m</text><text xml:space="preserve" font-family="AvenirNext-Regular,Avenir Next" font-size="35.0" fill="#000000" transform="matrix(1.00, 0.00, -0.00, -1.00, 1232.3, 696.8)">e</text><text xml:space="preserve" font-family="AvenirNext-Regular,Avenir Next" font-size="35.0" fill="#000000" transform="matrix(1.00, 0.00, -0.00, -1.00, 1252.3, 696.8)">n</text><text xml:space="preserve" font-family="AvenirNext-Regular,Avenir Next" font-size="35.0" fill="#000000" transform="matrix(1.00, 0.00, -0.00, -1.00, 1272.6, 696.8)">t</text><text xml:space="preserve" font-family="AvenirNext-Regular,Avenir Next" font-size="35.0" fill="#000000" transform="matrix(1.00, 0.00, -0.00, -1.00, 1283.7, 696.8)">s</text><text xml:space="preserve" font-family="AvenirNext-Regular,Avenir Next" font-size="35.0" fill="#000000" transform="matrix(1.00, 0.00, -0.00, -1.00, 1299.3, 696.8)"> </text><text xml:space="preserve" font-family="AvenirNext-Regular,Avenir Next" font-size="35.0" fill="#000000" transform="matrix(1.00, 0.00, -0.00, -1.00, 1308.0, 696.8)">i</text><text xml:space="preserve" font-family="AvenirNext-Regular,Avenir Next" font-size="35.0" fill="#000000" transform="matrix(1.00, 0.00, -0.00, -1.00, 1316.8, 696.8)">n</text><text xml:space="preserve" font-family="AvenirNext-Regular,Avenir Next" font-size="35.0" fill="#000000" transform="matrix(1.00, 0.00, -0.00, -1.00, 1337.1, 696.8)"> </text><text xml:space="preserve" font-family="AvenirNext-Regular,Avenir Next" font-size="35.0" fill="#000000" transform="matrix(1.00, 0.00, -0.00, -1.00, 1345.9, 696.8)">l</text><text xml:space="preserve" font-family="AvenirNext-Regular,Avenir Next" font-size="35.0" fill="#000000" transform="matrix(1.00, 0.00, -0.00, -1.00, 1354.7, 696.8)">i</text><text xml:space="preserve" font-family="AvenirNext-Regular,Avenir Next" font-size="35.0" fill="#000000" transform="matrix(1.00, 0.00, -0.00, -1.00, 1363.4, 696.8)">f</text><text xml:space="preserve" font-family="AvenirNext-Regular,Avenir Next" font-size="35.0" fill="#000000" transform="matrix(1.00, 0.00, -0.00, -1.00, 1373.7, 696.8)">e</text><text xml:space="preserve" font-family="AvenirNext-Regular,Avenir Next" font-size="35.0" fill="#000000" transform="matrix(1.00, 0.00, -0.00, -1.00, 1393.8, 696.8)"> </text><text xml:space="preserve" font-family="AvenirNext-Regular,Avenir Next" font-size="35.0" fill="#000000" transform="matrix(1.00, 0.00, -0.00, -1.00, 1402.5, 696.8)">a</text><text xml:space="preserve" font-family="AvenirNext-Regular,Avenir Next" font-size="35.0" fill="#000000" transform="matrix(1.00, 0.00, -0.00, -1.00, 1421.2, 696.8)">s</text><text xml:space="preserve" font-family="AvenirNext-Regular,Avenir Next" font-size="35.0" fill="#000000" transform="matrix(1.00, 0.00, -0.00, -1.00, 1436.7, 696.8)"> </text><text xml:space="preserve" font-family="AvenirNext-Regular,Avenir Next" font-size="35.0" fill="#000000" transform="matrix(1.00, 0.00, -0.00, -1.00, 1445.5, 696.8)">d</text><text xml:space="preserve" font-family="AvenirNext-Regular,Avenir Next" font-size="35.0" fill="#000000" transform="matrix(1.00, 0.00, -0.00, -1.00, 1467.8, 696.8)">a</text><text xml:space="preserve" font-family="AvenirNext-Regular,Avenir Next" font-size="35.0" fill="#000000" transform="matrix(1.00, 0.00, -0.00, -1.00, 1486.5, 696.8)">n</text><text xml:space="preserve" font-family="AvenirNext-Regular,Avenir Next" font-size="35.0" fill="#000000" transform="matrix(1.00, 0.00, -0.00, -1.00, 1506.8, 696.8)">c</text><text xml:space="preserve" font-family="AvenirNext-Regular,Avenir Next" font-size="35.0" fill="#000000" transform="matrix(1.00, 0.00, -0.00, -1.00, 1524.3, 696.8)">e</text><text xml:space="preserve" font-family="AvenirNext-Regular,Avenir Next" font-size="35.0" fill="#000000" transform="matrix(1.00, 0.00, -0.00, -1.00, 1544.3, 696.8)"> </text><text xml:space="preserve" font-family="AvenirNext-Regular,Avenir Next" font-size="35.0" fill="#000000" transform="matrix(1.00, 0.00, -0.00, -1.00, 1553.1, 696.8)">m</text><text xml:space="preserve" font-family="AvenirNext-Regular,Avenir Next" font-size="35.0" fill="#000000" transform="matrix(1.00, 0.00, -0.00, -1.00, 1584.0, 696.8)">o</text><text xml:space="preserve" font-family="AvenirNext-Regular,Avenir Next" font-size="35.0" fill="#000000" transform="matrix(1.00, 0.00, -0.00, -1.00, 1605.4, 696.8)">v</text><text xml:space="preserve" font-family="AvenirNext-Regular,Avenir Next" font-size="35.0" fill="#000000" transform="matrix(1.00, 0.00, -0.00, -1.00, 1622.5, 696.8)">e</text><text xml:space="preserve" font-family="AvenirNext-Regular,Avenir Next" font-size="35.0" fill="#000000" transform="matrix(1.00, 0.00, -0.00, -1.00, 1642.5, 696.8)">m</text><text xml:space="preserve" font-family="AvenirNext-Regular,Avenir Next" font-size="35.0" fill="#000000" transform="matrix(1.00, 0.00, -0.00, -1.00, 1673.4, 696.8)">e</text><text xml:space="preserve" font-family="AvenirNext-Regular,Avenir Next" font-size="35.0" fill="#000000" transform="matrix(1.00, 0.00, -0.00, -1.00, 1693.4, 696.8)">n</text><text xml:space="preserve" font-family="AvenirNext-Regular,Avenir Next" font-size="35.0" fill="#000000" transform="matrix(1.00, 0.00, -0.00, -1.00, 1713.7, 696.8)">t</text><text xml:space="preserve" font-family="AvenirNext-Regular,Avenir Next" font-size="35.0" fill="#000000" transform="matrix(1.00, 0.00, -0.00, -1.00, 1724.8, 696.8)">s</text><text xml:space="preserve" font-family="AvenirNext-Regular,Avenir Next" font-size="35.0" fill="#000000" transform="matrix(1.00, 0.00, -0.00, -1.00, 1740.4, 696.8)">.</text><text xml:space="preserve" font-family="AvenirNext-Regular,Avenir Next" font-size="35.0" fill="#000000" transform="matrix(1.00, 0.00, -0.00, -1.00, 1748.4, 696.8)"> </text><text xml:space="preserve" font-family="AvenirNext-Regular,Avenir Next" font-size="35.0" fill="#000000" transform="matrix(1.00, 0.00, -0.00, -1.00, 850.0, 648.8)">B</text><text xml:space="preserve" font-family="AvenirNext-Regular,Avenir Next" font-size="35.0" fill="#000000" transform="matrix(1.00, 0.00, -0.00, -1.00, 872.3, 648.8)">r</text><text xml:space="preserve" font-family="AvenirNext-Regular,Avenir Next" font-size="35.0" fill="#000000" transform="matrix(1.00, 0.00, -0.00, -1.00, 884.3, 648.8)">e</text><text xml:space="preserve" font-family="AvenirNext-Regular,Avenir Next" font-size="35.0" fill="#000000" transform="matrix(1.00, 0.00, -0.00, -1.00, 904.1, 648.8)">a</text><text xml:space="preserve" font-family="AvenirNext-Regular,Avenir Next" font-size="35.0" fill="#000000" transform="matrix(1.00, 0.00, -0.00, -1.00, 922.4, 648.8)">t</text><text xml:space="preserve" font-family="AvenirNext-Regular,Avenir Next" font-size="35.0" fill="#000000" transform="matrix(1.00, 0.00, -0.00, -1.00, 933.5, 648.8)">h</text><text xml:space="preserve" font-family="AvenirNext-Regular,Avenir Next" font-size="35.0" fill="#000000" transform="matrix(1.00, 0.00, -0.00, -1.00, 953.9, 648.8)">e</text><text xml:space="preserve" font-family="AvenirNext-Regular,Avenir Next" font-size="35.0" fill="#000000" transform="matrix(1.00, 0.00, -0.00, -1.00, 973.9, 648.8)">.</text><text xml:space="preserve" font-family="AvenirNext-Regular,Avenir Next" font-size="35.0" fill="#000000" transform="matrix(1.00, 0.00, -0.00, -1.00, 982.0, 648.8)"> </text><text xml:space="preserve" font-family="AvenirNext-Regular,Avenir Next" font-size="35.0" fill="#000000" transform="matrix(1.00, 0.00, -0.00, -1.00, 850.0, 600.8)">W</text><text xml:space="preserve" font-family="AvenirNext-Regular,Avenir Next" font-size="35.0" fill="#000000" transform="matrix(1.00, 0.00, -0.00, -1.00, 882.8, 600.8)">a</text><text xml:space="preserve" font-family="AvenirNext-Regular,Avenir Next" font-size="35.0" fill="#000000" transform="matrix(1.00, 0.00, -0.00, -1.00, 901.1, 600.8)">t</text><text xml:space="preserve" font-family="AvenirNext-Regular,Avenir Next" font-size="35.0" fill="#000000" transform="matrix(1.00, 0.00, -0.00, -1.00, 912.2, 600.8)">c</text><text xml:space="preserve" font-family="AvenirNext-Regular,Avenir Next" font-size="35.0" fill="#000000" transform="matrix(1.00, 0.00, -0.00, -1.00, 929.7, 600.8)">h</text><text xml:space="preserve" font-family="AvenirNext-Regular,Avenir Next" font-size="35.0" fill="#000000" transform="matrix(1.00, 0.00, -0.00, -1.00, 950.1, 600.8)">.</text><text xml:space="preserve" font-family="AvenirNext-Regular,Avenir Next" font-size="35.0" fill="#000000" transform="matrix(1.00, 0.00, -0.00, -1.00, 958.2, 600.8)"> </text><text xml:space="preserve" font-family="AvenirNext-Regular,Avenir Next" font-size="35.0" fill="#000000" transform="matrix(1.00, 0.00, -0.00, -1.00, 850.0, 552.8)">L</text><text xml:space="preserve" font-family="AvenirNext-Regular,Avenir Next" font-size="35.0" fill="#000000" transform="matrix(1.00, 0.00, -0.00, -1.00, 867.9, 552.8)">i</text><text xml:space="preserve" font-family="AvenirNext-Regular,Avenir Next" font-size="35.0" fill="#000000" transform="matrix(1.00, 0.00, -0.00, -1.00, 876.6, 552.8)">s</text><text xml:space="preserve" font-family="AvenirNext-Regular,Avenir Next" font-size="35.0" fill="#000000" transform="matrix(1.00, 0.00, -0.00, -1.00, 892.2, 552.8)">t</text><text xml:space="preserve" font-family="AvenirNext-Regular,Avenir Next" font-size="35.0" fill="#000000" transform="matrix(1.00, 0.00, -0.00, -1.00, 903.3, 552.8)">e</text><text xml:space="preserve" font-family="AvenirNext-Regular,Avenir Next" font-size="35.0" fill="#000000" transform="matrix(1.00, 0.00, -0.00, -1.00, 923.3, 552.8)">n</text><text xml:space="preserve" font-family="AvenirNext-Regular,Avenir Next" font-size="35.0" fill="#000000" transform="matrix(1.00, 0.00, -0.00, -1.00, 943.6, 552.8)">.</text><text xml:space="preserve" font-family="AvenirNext-Regular,Avenir Next" font-size="35.0" fill="#000000" transform="matrix(1.00, 0.00, -0.00, -1.00, 951.7, 552.8)"> </text><text xml:space="preserve" font-family="AvenirNext-Regular,Avenir Next" font-size="35.0" fill="#000000" transform="matrix(1.00, 0.00, -0.00, -1.00, 960.4, 552.8)"> </text><text xml:space="preserve" font-family="AvenirNext-Regular,Avenir Next" font-size="35.0" fill="#000000" transform="matrix(1.00, 0.00, -0.00, -1.00, 850.0, 504.8)">T</text><text xml:space="preserve" font-family="AvenirNext-Regular,Avenir Next" font-size="35.0" fill="#000000" transform="matrix(1.00, 0.00, -0.00, -1.00, 866.6, 504.8)">o</text><text xml:space="preserve" font-family="AvenirNext-Regular,Avenir Next" font-size="35.0" fill="#000000" transform="matrix(1.00, 0.00, -0.00, -1.00, 888.0, 504.8)">u</text><text xml:space="preserve" font-family="AvenirNext-Regular,Avenir Next" font-size="35.0" fill="#000000" transform="matrix(1.00, 0.00, -0.00, -1.00, 908.4, 504.8)">c</text><text xml:space="preserve" font-family="AvenirNext-Regular,Avenir Next" font-size="35.0" fill="#000000" transform="matrix(1.00, 0.00, -0.00, -1.00, 925.9, 504.8)">h</text><text xml:space="preserve" font-family="AvenirNext-Regular,Avenir Next" font-size="35.0" fill="#000000" transform="matrix(1.00, 0.00, -0.00, -1.00, 946.3, 504.8)">.</text><text xml:space="preserve" font-family="AvenirNext-Regular,Avenir Next" font-size="35.0" fill="#000000" transform="matrix(1.00, 0.00, -0.00, -1.00, 954.3, 504.8)"> </text><text xml:space="preserve" font-family="AvenirNext-Regular,Avenir Next" font-size="35.0" fill="#000000" transform="matrix(1.00, 0.00, -0.00, -1.00, 850.0, 456.8)">A</text><text xml:space="preserve" font-family="AvenirNext-Regular,Avenir Next" font-size="35.0" fill="#000000" transform="matrix(1.00, 0.00, -0.00, -1.00, 874.5, 456.8)">n</text><text xml:space="preserve" font-family="AvenirNext-Regular,Avenir Next" font-size="35.0" fill="#000000" transform="matrix(1.00, 0.00, -0.00, -1.00, 894.9, 456.8)">d</text><text xml:space="preserve" font-family="AvenirNext-Regular,Avenir Next" font-size="35.0" fill="#000000" transform="matrix(1.00, 0.00, -0.00, -1.00, 917.2, 456.8)"> </text><text xml:space="preserve" font-family="AvenirNext-Regular,Avenir Next" font-size="35.0" fill="#000000" transform="matrix(1.00, 0.00, -0.00, -1.00, 925.9, 456.8)">m</text><text xml:space="preserve" font-family="AvenirNext-Regular,Avenir Next" font-size="35.0" fill="#000000" transform="matrix(1.00, 0.00, -0.00, -1.00, 956.8, 456.8)">o</text><text xml:space="preserve" font-family="AvenirNext-Regular,Avenir Next" font-size="35.0" fill="#000000" transform="matrix(1.00, 0.00, -0.00, -1.00, 978.2, 456.8)">v</text><text xml:space="preserve" font-family="AvenirNext-Regular,Avenir Next" font-size="35.0" fill="#000000" transform="matrix(1.00, 0.00, -0.00, -1.00, 995.3, 456.8)">e</text><text xml:space="preserve" font-family="AvenirNext-Regular,Avenir Next" font-size="35.0" fill="#000000" transform="matrix(1.00, 0.00, -0.00, -1.00, 1015.3, 456.8)"> </text><text xml:space="preserve" font-family="AvenirNext-Regular,Avenir Next" font-size="35.0" fill="#000000" transform="matrix(1.00, 0.00, -0.00, -1.00, 1024.1, 456.8)">b</text><text xml:space="preserve" font-family="AvenirNext-Regular,Avenir Next" font-size="35.0" fill="#000000" transform="matrix(1.00, 0.00, -0.00, -1.00, 1046.4, 456.8)">e</text><text xml:space="preserve" font-family="AvenirNext-Regular,Avenir Next" font-size="35.0" fill="#000000" transform="matrix(1.00, 0.00, -0.00, -1.00, 1066.4, 456.8)">t</text><text xml:space="preserve" font-family="AvenirNext-Regular,Avenir Next" font-size="35.0" fill="#000000" transform="matrix(1.00, 0.00, -0.00, -1.00, 1077.5, 456.8)">w</text><text xml:space="preserve" font-family="AvenirNext-Regular,Avenir Next" font-size="35.0" fill="#000000" transform="matrix(1.00, 0.00, -0.00, -1.00, 1103.6, 456.8)">e</text><text xml:space="preserve" font-family="AvenirNext-Regular,Avenir Next" font-size="35.0" fill="#000000" transform="matrix(1.00, 0.00, -0.00, -1.00, 1123.6, 456.8)">e</text><text xml:space="preserve" font-family="AvenirNext-Regular,Avenir Next" font-size="35.0" fill="#000000" transform="matrix(1.00, 0.00, -0.00, -1.00, 1143.6, 456.8)">n</text><text xml:space="preserve" font-family="AvenirNext-Regular,Avenir Next" font-size="35.0" fill="#000000" transform="matrix(1.00, 0.00, -0.00, -1.00, 1164.0, 456.8)"> </text><text xml:space="preserve" font-family="AvenirNext-Regular,Avenir Next" font-size="35.0" fill="#000000" transform="matrix(1.00, 0.00, -0.00, -1.00, 1172.7, 456.8)">t</text><text xml:space="preserve" font-family="AvenirNext-Regular,Avenir Next" font-size="35.0" fill="#000000" transform="matrix(1.00, 0.00, -0.00, -1.00, 1183.8, 456.8)">h</text><text xml:space="preserve" font-family="AvenirNext-Regular,Avenir Next" font-size="35.0" fill="#000000" transform="matrix(1.00, 0.00, -0.00, -1.00, 1204.2, 456.8)">e</text><text xml:space="preserve" font-family="AvenirNext-Regular,Avenir Next" font-size="35.0" fill="#000000" transform="matrix(1.00, 0.00, -0.00, -1.00, 1224.2, 456.8)"> </text><text xml:space="preserve" font-family="AvenirNext-Regular,Avenir Next" font-size="35.0" fill="#000000" transform="matrix(1.00, 0.00, -0.00, -1.00, 1233.0, 456.8)">e</text><text xml:space="preserve" font-family="AvenirNext-Regular,Avenir Next" font-size="35.0" fill="#000000" transform="matrix(1.00, 0.00, -0.00, -1.00, 1252.8, 456.8)">a</text><text xml:space="preserve" font-family="AvenirNext-Regular,Avenir Next" font-size="35.0" fill="#000000" transform="matrix(1.00, 0.00, -0.00, -1.00, 1271.5, 456.8)">r</text><text xml:space="preserve" font-family="AvenirNext-Regular,Avenir Next" font-size="35.0" fill="#000000" transform="matrix(1.00, 0.00, -0.00, -1.00, 1283.7, 456.8)">t</text><text xml:space="preserve" font-family="AvenirNext-Regular,Avenir Next" font-size="35.0" fill="#000000" transform="matrix(1.00, 0.00, -0.00, -1.00, 1294.8, 456.8)">h</text><text xml:space="preserve" font-family="AvenirNext-Regular,Avenir Next" font-size="35.0" fill="#000000" transform="matrix(1.00, 0.00, -0.00, -1.00, 1315.2, 456.8)"> </text><text xml:space="preserve" font-family="AvenirNext-Regular,Avenir Next" font-size="35.0" fill="#000000" transform="matrix(1.00, 0.00, -0.00, -1.00, 1323.9, 456.8)">a</text><text xml:space="preserve" font-family="AvenirNext-Regular,Avenir Next" font-size="35.0" fill="#000000" transform="matrix(1.00, 0.00, -0.00, -1.00, 1342.6, 456.8)">n</text><text xml:space="preserve" font-family="AvenirNext-Regular,Avenir Next" font-size="35.0" fill="#000000" transform="matrix(1.00, 0.00, -0.00, -1.00, 1362.9, 456.8)">d</text><text xml:space="preserve" font-family="AvenirNext-Regular,Avenir Next" font-size="35.0" fill="#000000" transform="matrix(1.00, 0.00, -0.00, -1.00, 1385.2, 456.8)"> </text><text xml:space="preserve" font-family="AvenirNext-Regular,Avenir Next" font-size="35.0" fill="#000000" transform="matrix(1.00, 0.00, -0.00, -1.00, 1394.0, 456.8)">t</text><text xml:space="preserve" font-family="AvenirNext-Regular,Avenir Next" font-size="35.0" fill="#000000" transform="matrix(1.00, 0.00, -0.00, -1.00, 1405.1, 456.8)">h</text><text xml:space="preserve" font-family="AvenirNext-Regular,Avenir Next" font-size="35.0" fill="#000000" transform="matrix(1.00, 0.00, -0.00, -1.00, 1425.5, 456.8)">e</text><text xml:space="preserve" font-family="AvenirNext-Regular,Avenir Next" font-size="35.0" fill="#000000" transform="matrix(1.00, 0.00, -0.00, -1.00, 1445.5, 456.8)"> </text><text xml:space="preserve" font-family="AvenirNext-Regular,Avenir Next" font-size="35.0" fill="#000000" transform="matrix(1.00, 0.00, -0.00, -1.00, 1454.2, 456.8)">s</text><text xml:space="preserve" font-family="AvenirNext-Regular,Avenir Next" font-size="35.0" fill="#000000" transform="matrix(1.00, 0.00, -0.00, -1.00, 1469.8, 456.8)">k</text><text xml:space="preserve" font-family="AvenirNext-Regular,Avenir Next" font-size="35.0" fill="#000000" transform="matrix(1.00, 0.00, -0.00, -1.00, 1487.2, 456.8)">y</text><text xml:space="preserve" font-family="AvenirNext-Regular,Avenir Next" font-size="35.0" fill="#000000" transform="matrix(1.00, 0.00, -0.00, -1.00, 1503.0, 456.8)">.</text><text xml:space="preserve" font-family="AvenirNext-Regular,Avenir Next" font-size="35.0" fill="#000000" transform="matrix(1.00, 0.00, -0.00, -1.00, 1511.1, 456.8)"> </text><text xml:space="preserve" font-family="AvenirNext-Regular,Avenir Next" font-size="35.0" fill="#000000" transform="matrix(1.00, 0.00, -0.00, -1.00, 850.0, 360.8)">Y</text><text xml:space="preserve" font-family="AvenirNext-Regular,Avenir Next" font-size="35.0" fill="#000000" transform="matrix(1.00, 0.00, -0.00, -1.00, 868.0, 360.8)">o</text><text xml:space="preserve" font-family="AvenirNext-Regular,Avenir Next" font-size="35.0" fill="#000000" transform="matrix(1.00, 0.00, -0.00, -1.00, 889.3, 360.8)">k</text><text xml:space="preserve" font-family="AvenirNext-Regular,Avenir Next" font-size="35.0" fill="#000000" transform="matrix(1.00, 0.00, -0.00, -1.00, 906.6, 360.8)">o</text><text xml:space="preserve" font-family="AvenirNext-Regular,Avenir Next" font-size="35.0" fill="#000000" transform="matrix(1.00, 0.00, -0.00, -1.00, 928.0, 360.8)"> </text><text xml:space="preserve" font-family="AvenirNext-Regular,Avenir Next" font-size="35.0" fill="#000000" transform="matrix(1.00, 0.00, -0.00, -1.00, 936.7, 360.8)">O</text><text xml:space="preserve" font-family="AvenirNext-Regular,Avenir Next" font-size="35.0" fill="#000000" transform="matrix(1.00, 0.00, -0.00, -1.00, 966.5, 360.8)">n</text><text xml:space="preserve" font-family="AvenirNext-Regular,Avenir Next" font-size="35.0" fill="#000000" transform="matrix(1.00, 0.00, -0.00, -1.00, 986.8, 360.8)">o</text></g></svg>