<?xml version="1.0" encoding="UTF-8" standalone="no"?><svg xmlns="http://www.w3.org/2000/svg" xmlns:xlink="http://www.w3.org/1999/xlink" clip-rule="evenodd" stroke-miterlimit="10" viewBox="0 0 1920 1080"><desc>SVG generated by Keynote</desc><defs></defs><g transform="matrix(1.00, 0.00, -0.00, -1.00, 0.0, 1080.0)"><path d="M 0.0 1080.0 L 1920.0 1080.0 L 1920.0 0.0 L 0.0 0.0 Z M 0.0 1080.0 " fill="#FEFFFF"></path><image xlink:href="5C675A0413EC5AA48CE074B70621AAC4.jpeg" width="1280.00" height="720.00" transform="matrix(1.55, 0.00, -0.00, -1.55, -31.7, 1097.8)"></image><image xlink:href="DFDB345CEB4600EBCB37C013533BAB7E.png" width="463.00" height="78.00" transform="matrix(1.00, 0.00, -0.00, -1.00, 43.0, 180.0)"></image><text xml:space="preserve" font-family="Questrial-Regular,Questrial" font-size="34.0" fill="#FEFFFE" transform="matrix(1.00, 0.00, -0.00, -1.00, 68.7, 145.2)">T</text><text xml:space="preserve" font-family="Questrial-Regular,Questrial" font-size="34.0" fill="#FEFFFE" transform="matrix(1.00, 0.00, -0.00, -1.00, 87.9, 145.2)">h</text><text xml:space="preserve" font-family="Questrial-Regular,Questrial" font-size="34.0" fill="#FEFFFE" transform="matrix(1.00, 0.00, -0.00, -1.00, 107.2, 145.2)">e</text><text xml:space="preserve" font-family="Questrial-Regular,Questrial" font-size="34.0" fill="#FEFFFE" transform="matrix(1.00, 0.00, -0.00, -1.00, 126.1, 145.2)"> </text><text xml:space="preserve" font-family="Questrial-Regular,Questrial" font-size="34.0" fill="#FEFFFE" transform="matrix(1.00, 0.00, -0.00, -1.00, 133.3, 145.2)">W</text><text xml:space="preserve" font-family="Questrial-Regular,Questrial" font-size="34.0" fill="#FEFFFE" transform="matrix(1.00, 0.00, -0.00, -1.00, 164.8, 145.2)">o</text><text xml:space="preserve" font-family="Questrial-Regular,Questrial" font-size="34.0" fill="#FEFFFE" transform="matrix(1.00, 0.00, -0.00, -1.00, 184.0, 145.2)">m</text><text xml:space="preserve" font-family="Questrial-Regular,Questrial" font-size="34.0" fill="#FEFFFE" transform="matrix(1.00, 0.00, -0.00, -1.00, 213.5, 145.2)">b</text><text xml:space="preserve" font-family="Questrial-Regular,Questrial" font-size="34.0" fill="#FEFFFE" transform="matrix(1.00, 0.00, -0.00, -1.00, 233.7, 145.2)">a</text><text xml:space="preserve" font-family="Questrial-Regular,Questrial" font-size="34.0" fill="#FEFFFE" transform="matrix(1.00, 0.00, -0.00, -1.00, 253.9, 145.2)">t</text><text xml:space="preserve" font-family="Questrial-Regular,Questrial" font-size="34.0" fill="#FEFFFE" transform="matrix(1.00, 0.00, -0.00, -1.00, 265.0, 145.2)">s</text><text xml:space="preserve" font-family="Questrial-Regular,Questrial" font-size="34.0" fill="#FEFFFE" transform="matrix(1.00, 0.00, -0.00, -1.00, 281.4, 145.2)"> </text><text xml:space="preserve" font-family="Questrial-Regular,Questrial" font-size="34.0" fill="#FEFFFE" transform="matrix(1.00, 0.00, -0.00, -1.00, 288.6, 145.2)">‘</text><text xml:space="preserve" font-family="Questrial-Regular,Questrial" font-size="34.0" fill="#FEFFFE" transform="matrix(1.00, 0.00, -0.00, -1.00, 296.0, 145.2)">T</text><text xml:space="preserve" font-family="Questrial-Regular,Questrial" font-size="34.0" fill="#FEFFFE" transform="matrix(1.00, 0.00, -0.00, -1.00, 311.9, 145.2)">e</text><text xml:space="preserve" font-family="Questrial-Regular,Questrial" font-size="34.0" fill="#FEFFFE" transform="matrix(1.00, 0.00, -0.00, -1.00, 330.8, 145.2)">c</text><text xml:space="preserve" font-family="Questrial-Regular,Questrial" font-size="34.0" fill="#FEFFFE" transform="matrix(1.00, 0.00, -0.00, -1.00, 349.3, 145.2)">h</text><text xml:space="preserve" font-family="Questrial-Regular,Questrial" font-size="34.0" fill="#FEFFFE" transform="matrix(1.00, 0.00, -0.00, -1.00, 368.6, 145.2)">n</text><text xml:space="preserve" font-family="Questrial-Regular,Questrial" font-size="34.0" fill="#FEFFFE" transform="matrix(1.00, 0.00, -0.00, -1.00, 387.8, 145.2)">o</text><text xml:space="preserve" font-family="Questrial-Regular,Questrial" font-size="34.0" fill="#FEFFFE" transform="matrix(1.00, 0.00, -0.00, -1.00, 407.0, 145.2)"> </text><text xml:space="preserve" font-family="Questrial-Regular,Questrial" font-size="34.0" fill="#FEFFFE" transform="matrix(1.00, 0.00, -0.00, -1.00, 414.2, 145.2)">F</text><text xml:space="preserve" font-family="Questrial-Regular,Questrial" font-size="34.0" fill="#FEFFFE" transform="matrix(1.00, 0.00, -0.00, -1.00, 433.6, 145.2)">a</text><text xml:space="preserve" font-family="Questrial-Regular,Questrial" font-size="34.0" fill="#FEFFFE" transform="matrix(1.00, 0.00, -0.00, -1.00, 453.8, 145.2)">n</text><text xml:space="preserve" font-family="Questrial-Regular,Questrial" font-size="34.0" fill="#FEFFFE" transform="matrix(1.00, 0.00, -0.00, -1.00, 472.7, 145.2)">’</text><text xml:space="preserve" font-family="Questrial-Regular,Questrial" font-size="34.0" fill="#FEFFFE" transform="matrix(1.00, 0.00, -0.00, -1.00, 479.9, 145.2)"> </text><image xlink:href="0A07DB447141F7398DAC85D107196A6C.png" width="496.00" height="73.00" transform="matrix(1.00, 0.00, -0.00, -1.00, 44.0, 145.0)"></image><text xml:space="preserve" font-family="Questrial-Regular,Questrial" font-size="28.0" fill="#FEFFFE" transform="matrix(1.00, 0.00, -0.00, -1.00, 68.7, 114.9)">M</text><text xml:space="preserve" font-family="Questrial-Regular,Questrial" font-size="28.0" fill="#FEFFFE" transform="matrix(1.00, 0.00, -0.00, -1.00, 91.0, 114.9)">e</text><text xml:space="preserve" font-family="Questrial-Regular,Questrial" font-size="28.0" fill="#FEFFFE" transform="matrix(1.00, 0.00, -0.00, -1.00, 106.6, 114.9)">m</text><text xml:space="preserve" font-family="Questrial-Regular,Questrial" font-size="28.0" fill="#FEFFFE" transform="matrix(1.00, 0.00, -0.00, -1.00, 130.9, 114.9)">o</text><text xml:space="preserve" font-family="Questrial-Regular,Questrial" font-size="28.0" fill="#FEFFFE" transform="matrix(1.00, 0.00, -0.00, -1.00, 146.7, 114.9)"> </text><text xml:space="preserve" font-family="Questrial-Regular,Questrial" font-size="28.0" fill="#FEFFFE" transform="matrix(1.00, 0.00, -0.00, -1.00, 152.7, 114.9)">A</text><text xml:space="preserve" font-family="Questrial-Regular,Questrial" font-size="28.0" fill="#FEFFFE" transform="matrix(1.00, 0.00, -0.00, -1.00, 171.2, 114.9)">k</text><text xml:space="preserve" font-family="Questrial-Regular,Questrial" font-size="28.0" fill="#FEFFFE" transform="matrix(1.00, 0.00, -0.00, -1.00, 185.3, 114.9)">t</text><text xml:space="preserve" font-family="Questrial-Regular,Questrial" font-size="28.0" fill="#FEFFFE" transform="matrix(1.00, 0.00, -0.00, -1.00, 194.1, 114.9)">e</text><text xml:space="preserve" font-family="Questrial-Regular,Questrial" font-size="28.0" fill="#FEFFFE" transform="matrix(1.00, 0.00, -0.00, -1.00, 209.7, 114.9)">n</text><text xml:space="preserve" font-family="Questrial-Regular,Questrial" font-size="28.0" fill="#FEFFFE" transform="matrix(1.00, 0.00, -0.00, -1.00, 225.6, 114.9)"> </text><text xml:space="preserve" font-family="Questrial-Regular,Questrial" font-size="28.0" fill="#FEFFFE" transform="matrix(1.00, 0.00, -0.00, -1.00, 231.5, 114.9)">&amp;</text><text xml:space="preserve" font-family="Questrial-Regular,Questrial" font-size="28.0" fill="#FEFFFE" transform="matrix(1.00, 0.00, -0.00, -1.00, 247.8, 114.9)"> </text><text xml:space="preserve" font-family="Questrial-Regular,Questrial" font-size="28.0" fill="#FEFFFE" transform="matrix(1.00, 0.00, -0.00, -1.00, 253.7, 114.9)">T</text><text xml:space="preserve" font-family="Questrial-Regular,Questrial" font-size="28.0" fill="#FEFFFE" transform="matrix(1.00, 0.00, -0.00, -1.00, 269.5, 114.9)">h</text><text xml:space="preserve" font-family="Questrial-Regular,Questrial" font-size="28.0" fill="#FEFFFE" transform="matrix(1.00, 0.00, -0.00, -1.00, 285.4, 114.9)">e</text><text xml:space="preserve" font-family="Questrial-Regular,Questrial" font-size="28.0" fill="#FEFFFE" transform="matrix(1.00, 0.00, -0.00, -1.00, 301.0, 114.9)"> </text><text xml:space="preserve" font-family="Questrial-Regular,Questrial" font-size="28.0" fill="#FEFFFE" transform="matrix(1.00, 0.00, -0.00, -1.00, 306.9, 114.9)">F</text><text xml:space="preserve" font-family="Questrial-Regular,Questrial" font-size="28.0" fill="#FEFFFE" transform="matrix(1.00, 0.00, -0.00, -1.00, 322.9, 114.9)">o</text><text xml:space="preserve" font-family="Questrial-Regular,Questrial" font-size="28.0" fill="#FEFFFE" transform="matrix(1.00, 0.00, -0.00, -1.00, 338.6, 114.9)">u</text><text xml:space="preserve" font-family="Questrial-Regular,Questrial" font-size="28.0" fill="#FEFFFE" transform="matrix(1.00, 0.00, -0.00, -1.00, 354.5, 114.9)">n</text><text xml:space="preserve" font-family="Questrial-Regular,Questrial" font-size="28.0" fill="#FEFFFE" transform="matrix(1.00, 0.00, -0.00, -1.00, 370.3, 114.9)">d</text><text xml:space="preserve" font-family="Questrial-Regular,Questrial" font-size="28.0" fill="#FEFFFE" transform="matrix(1.00, 0.00, -0.00, -1.00, 387.0, 114.9)"> </text><text xml:space="preserve" font-family="Questrial-Regular,Questrial" font-size="28.0" fill="#FEFFFE" transform="matrix(1.00, 0.00, -0.00, -1.00, 393.0, 114.9)">C</text><text xml:space="preserve" font-family="Questrial-Regular,Questrial" font-size="28.0" fill="#FEFFFE" transform="matrix(1.00, 0.00, -0.00, -1.00, 412.3, 114.9)">o</text><text xml:space="preserve" font-family="Questrial-Regular,Questrial" font-size="28.0" fill="#FEFFFE" transform="matrix(1.00, 0.00, -0.00, -1.00, 428.1, 114.9)">l</text><text xml:space="preserve" font-family="Questrial-Regular,Questrial" font-size="28.0" fill="#FEFFFE" transform="matrix(1.00, 0.00, -0.00, -1.00, 433.8, 114.9)">l</text><text xml:space="preserve" font-family="Questrial-Regular,Questrial" font-size="28.0" fill="#FEFFFE" transform="matrix(1.00, 0.00, -0.00, -1.00, 439.6, 114.9)">e</text><text xml:space="preserve" font-family="Questrial-Regular,Questrial" font-size="28.0" fill="#FEFFFE" transform="matrix(1.00, 0.00, -0.00, -1.00, 455.2, 114.9)">c</text><text xml:space="preserve" font-family="Questrial-Regular,Questrial" font-size="28.0" fill="#FEFFFE" transform="matrix(1.00, 0.00, -0.00, -1.00, 470.4, 114.9)">t</text><text xml:space="preserve" font-family="Questrial-Regular,Questrial" font-size="28.0" fill="#FEFFFE" transform="matrix(1.00, 0.00, -0.00, -1.00, 479.5, 114.9)">i</text><text xml:space="preserve" font-family="Questrial-Regular,Questrial" font-size="28.0" fill="#FEFFFE" transform="matrix(1.00, 0.00, -0.00, -1.00, 485.3, 114.9)">v</text><text xml:space="preserve" font-family="Questrial-Regular,Questrial" font-size="28.0" fill="#FEFFFE" transform="matrix(1.00, 0.00, -0.00, -1.00, 498.8, 114.9)">e</text><text xml:space="preserve" font-family="Questrial-Regular,Questrial" font-size="28.0" fill="#FEFFFE" transform="matrix(1.00, 0.00, -0.00, -1.00, 514.4, 114.9)"> </text><image xlink:href="A71D6B35C5E77477B0D98C154B5A0C27.png" width="677.00" height="78.00" transform="matrix(1.00, 0.00, -0.00, -1.00, 44.0, 116.0)"></image><text xml:space="preserve" font-family="Questrial-Regular,Questrial" font-size="28.0" fill="#FEFFFE" transform="matrix(1.00, 0.00, -0.00, -1.00, 68.7, 85.9)">h</text><text xml:space="preserve" font-family="Questrial-Regular,Questrial" font-size="28.0" fill="#FEFFFE" transform="matrix(1.00, 0.00, -0.00, -1.00, 84.2, 85.9)">t</text><text xml:space="preserve" font-family="Questrial-Regular,Questrial" font-size="28.0" fill="#FEFFFE" transform="matrix(1.00, 0.00, -0.00, -1.00, 93.3, 85.9)">t</text><text xml:space="preserve" font-family="Questrial-Regular,Questrial" font-size="28.0" fill="#FEFFFE" transform="matrix(1.00, 0.00, -0.00, -1.00, 102.5, 85.9)">p</text><text xml:space="preserve" font-family="Questrial-Regular,Questrial" font-size="28.0" fill="#FEFFFE" transform="matrix(1.00, 0.00, -0.00, -1.00, 119.1, 85.9)">:</text><text xml:space="preserve" font-family="Questrial-Regular,Questrial" font-size="28.0" fill="#FEFFFE" transform="matrix(1.00, 0.00, -0.00, -1.00, 124.8, 85.9)">/</text><text xml:space="preserve" font-family="Questrial-Regular,Questrial" font-size="28.0" fill="#FEFFFE" transform="matrix(1.00, 0.00, -0.00, -1.00, 131.4, 85.9)">/</text><text xml:space="preserve" font-family="Questrial-Regular,Questrial" font-size="28.0" fill="#FEFFFE" transform="matrix(1.00, 0.00, -0.00, -1.00, 141.8, 85.9)">w</text><text xml:space="preserve" font-family="Questrial-Regular,Questrial" font-size="28.0" fill="#FEFFFE" transform="matrix(1.00, 0.00, -0.00, -1.00, 162.9, 85.9)">w</text><text xml:space="preserve" font-family="Questrial-Regular,Questrial" font-size="28.0" fill="#FEFFFE" transform="matrix(1.00, 0.00, -0.00, -1.00, 184.0, 85.9)">w</text><text xml:space="preserve" font-family="Questrial-Regular,Questrial" font-size="28.0" fill="#FEFFFE" transform="matrix(1.00, 0.00, -0.00, -1.00, 204.6, 85.9)">.</text><text xml:space="preserve" font-family="Questrial-Regular,Questrial" font-size="28.0" fill="#FEFFFE" transform="matrix(1.00, 0.00, -0.00, -1.00, 210.2, 85.9)">m</text><text xml:space="preserve" font-family="Questrial-Regular,Questrial" font-size="28.0" fill="#FEFFFE" transform="matrix(1.00, 0.00, -0.00, -1.00, 234.5, 85.9)">s</text><text xml:space="preserve" font-family="Questrial-Regular,Questrial" font-size="28.0" fill="#FEFFFE" transform="matrix(1.00, 0.00, -0.00, -1.00, 248.0, 85.9)">a</text><text xml:space="preserve" font-family="Questrial-Regular,Questrial" font-size="28.0" fill="#FEFFFE" transform="matrix(1.00, 0.00, -0.00, -1.00, 264.7, 85.9)">v</text><text xml:space="preserve" font-family="Questrial-Regular,Questrial" font-size="28.0" fill="#FEFFFE" transform="matrix(1.00, 0.00, -0.00, -1.00, 278.4, 85.9)">i</text><text xml:space="preserve" font-family="Questrial-Regular,Questrial" font-size="28.0" fill="#FEFFFE" transform="matrix(1.00, 0.00, -0.00, -1.00, 284.1, 85.9)">s</text><text xml:space="preserve" font-family="Questrial-Regular,Questrial" font-size="28.0" fill="#FEFFFE" transform="matrix(1.00, 0.00, -0.00, -1.00, 297.6, 85.9)">u</text><text xml:space="preserve" font-family="Questrial-Regular,Questrial" font-size="28.0" fill="#FEFFFE" transform="matrix(1.00, 0.00, -0.00, -1.00, 313.5, 85.9)">a</text><text xml:space="preserve" font-family="Questrial-Regular,Questrial" font-size="28.0" fill="#FEFFFE" transform="matrix(1.00, 0.00, -0.00, -1.00, 330.1, 85.9)">l</text><text xml:space="preserve" font-family="Questrial-Regular,Questrial" font-size="28.0" fill="#FEFFFE" transform="matrix(1.00, 0.00, -0.00, -1.00, 335.9, 85.9)">s</text><text xml:space="preserve" font-family="Questrial-Regular,Questrial" font-size="28.0" fill="#FEFFFE" transform="matrix(1.00, 0.00, -0.00, -1.00, 349.4, 85.9)">.</text><text xml:space="preserve" font-family="Questrial-Regular,Questrial" font-size="28.0" fill="#FEFFFE" transform="matrix(1.00, 0.00, -0.00, -1.00, 355.1, 85.9)">c</text><text xml:space="preserve" font-family="Questrial-Regular,Questrial" font-size="28.0" fill="#FEFFFE" transform="matrix(1.00, 0.00, -0.00, -1.00, 370.3, 85.9)">o</text><text xml:space="preserve" font-family="Questrial-Regular,Questrial" font-size="28.0" fill="#FEFFFE" transform="matrix(1.00, 0.00, -0.00, -1.00, 386.1, 85.9)">m</text><text xml:space="preserve" font-family="Questrial-Regular,Questrial" font-size="28.0" fill="#FEFFFE" transform="matrix(1.00, 0.00, -0.00, -1.00, 410.4, 85.9)">/</text><text xml:space="preserve" font-family="Questrial-Regular,Questrial" font-size="28.0" fill="#FEFFFE" transform="matrix(1.00, 0.00, -0.00, -1.00, 420.8, 85.9)">w</text><text xml:space="preserve" font-family="Questrial-Regular,Questrial" font-size="28.0" fill="#FEFFFE" transform="matrix(1.00, 0.00, -0.00, -1.00, 441.8, 85.9)">o</text><text xml:space="preserve" font-family="Questrial-Regular,Questrial" font-size="28.0" fill="#FEFFFE" transform="matrix(1.00, 0.00, -0.00, -1.00, 457.6, 85.9)">m</text><text xml:space="preserve" font-family="Questrial-Regular,Questrial" font-size="28.0" fill="#FEFFFE" transform="matrix(1.00, 0.00, -0.00, -1.00, 481.9, 85.9)">b</text><text xml:space="preserve" font-family="Questrial-Regular,Questrial" font-size="28.0" fill="#FEFFFE" transform="matrix(1.00, 0.00, -0.00, -1.00, 498.5, 85.9)">a</text><text xml:space="preserve" font-family="Questrial-Regular,Questrial" font-size="28.0" fill="#FEFFFE" transform="matrix(1.00, 0.00, -0.00, -1.00, 515.2, 85.9)">t</text><text xml:space="preserve" font-family="Questrial-Regular,Questrial" font-size="28.0" fill="#FEFFFE" transform="matrix(1.00, 0.00, -0.00, -1.00, 524.3, 85.9)">s</text><text xml:space="preserve" font-family="Questrial-Regular,Questrial" font-size="28.0" fill="#FEFFFE" transform="matrix(1.00, 0.00, -0.00, -1.00, 537.8, 85.9)">-</text><text xml:space="preserve" font-family="Questrial-Regular,Questrial" font-size="28.0" fill="#FEFFFE" transform="matrix(1.00, 0.00, -0.00, -1.00, 547.2, 85.9)">t</text><text xml:space="preserve" font-family="Questrial-Regular,Questrial" font-size="28.0" fill="#FEFFFE" transform="matrix(1.00, 0.00, -0.00, -1.00, 556.0, 85.9)">e</text><text xml:space="preserve" font-family="Questrial-Regular,Questrial" font-size="28.0" fill="#FEFFFE" transform="matrix(1.00, 0.00, -0.00, -1.00, 571.6, 85.9)">c</text><text xml:space="preserve" font-family="Questrial-Regular,Questrial" font-size="28.0" fill="#FEFFFE" transform="matrix(1.00, 0.00, -0.00, -1.00, 586.9, 85.9)">h</text><text xml:space="preserve" font-family="Questrial-Regular,Questrial" font-size="28.0" fill="#FEFFFE" transform="matrix(1.00, 0.00, -0.00, -1.00, 602.7, 85.9)">n</text><text xml:space="preserve" font-family="Questrial-Regular,Questrial" font-size="28.0" fill="#FEFFFE" transform="matrix(1.00, 0.00, -0.00, -1.00, 618.6, 85.9)">o</text><text xml:space="preserve" font-family="Questrial-Regular,Questrial" font-size="28.0" fill="#FEFFFE" transform="matrix(1.00, 0.00, -0.00, -1.00, 634.4, 85.9)">-</text><text xml:space="preserve" font-family="Questrial-Regular,Questrial" font-size="28.0" fill="#FEFFFE" transform="matrix(1.00, 0.00, -0.00, -1.00, 644.0, 85.9)">f</text><text xml:space="preserve" font-family="Questrial-Regular,Questrial" font-size="28.0" fill="#FEFFFE" transform="matrix(1.00, 0.00, -0.00, -1.00, 652.3, 85.9)">a</text><text xml:space="preserve" font-family="Questrial-Regular,Questrial" font-size="28.0" fill="#FEFFFE" transform="matrix(1.00, 0.00, -0.00, -1.00, 668.9, 85.9)">n</text><text xml:space="preserve" font-family="Questrial-Regular,Questrial" font-size="28.0" fill="#FEFFFE" transform="matrix(1.00, 0.00, -0.00, -1.00, 684.8, 85.9)">/</text><image xlink:href="AD46A5EC4D4A65E4CE2073727C7BE82D.png" width="629.00" height="4.00" transform="matrix(1.00, 0.00, -0.00, -1.00, 67.0, 85.0)"></image><g><clipPath id="clip0x6180008bbf60"><path d="M 67.7 81.1 L 695.2 81.1 L 695.2 85.0 L 67.7 85.0 Z M 67.7 81.1 "></path></clipPath><g clip-path="url(#clip0x6180008bbf60)"><path d="M 5.6 95.7 L 632.1 95.7 " fill="none" stroke="#FEFFFE" stroke-width="1.90" transform="matrix(1.00, 0.00, 0.00, -1.00, 63.1, 178.7)"></path></g></g></g></svg>