<?xml version="1.0" encoding="UTF-8" standalone="no"?><svg xmlns="http://www.w3.org/2000/svg" xmlns:xlink="http://www.w3.org/1999/xlink" clip-rule="evenodd" stroke-miterlimit="10" viewBox="0 0 1920 1080"><desc>SVG generated by Keynote</desc><defs></defs><g transform="matrix(1.00, 0.00, -0.00, -1.00, 0.0, 1080.0)"><path d="M 0.0 1080.0 L 1920.0 1080.0 L 1920.0 0.0 L 0.0 0.0 Z M 0.0 1080.0 " fill="#000000"></path><image xlink:href="3D100CE6A16AD2A108F02F3FA16449CE.png" width="444.00" height="56.00" transform="matrix(1.00, 0.00, -0.00, -1.00, 737.0, 918.0)"></image><text xml:space="preserve" font-family="Questrial-Regular,Questrial" font-size="56.0" fill="#FEFFFE" transform="matrix(1.00, 0.00, -0.00, -1.00, 741.1, 876.3)">T</text><text xml:space="preserve" font-family="Questrial-Regular,Questrial" font-size="56.0" fill="#FEFFFE" transform="matrix(1.00, 0.00, -0.00, -1.00, 768.9, 876.3)">r</text><text xml:space="preserve" font-family="Questrial-Regular,Questrial" font-size="56.0" fill="#FEFFFE" transform="matrix(1.00, 0.00, -0.00, -1.00, 788.2, 876.3)">u</text><text xml:space="preserve" font-family="Questrial-Regular,Questrial" font-size="56.0" fill="#FEFFFE" transform="matrix(1.00, 0.00, -0.00, -1.00, 819.9, 876.3)">e</text><text xml:space="preserve" font-family="Questrial-Regular,Questrial" font-size="56.0" fill="#FEFFFE" transform="matrix(1.00, 0.00, -0.00, -1.00, 851.1, 876.3)"> </text><text xml:space="preserve" font-family="Questrial-Regular,Questrial" font-size="56.0" fill="#FEFFFE" transform="matrix(1.00, 0.00, -0.00, -1.00, 863.0, 876.3)">C</text><text xml:space="preserve" font-family="Questrial-Regular,Questrial" font-size="56.0" fill="#FEFFFE" transform="matrix(1.00, 0.00, -0.00, -1.00, 901.7, 876.3)">o</text><text xml:space="preserve" font-family="Questrial-Regular,Questrial" font-size="56.0" fill="#FEFFFE" transform="matrix(1.00, 0.00, -0.00, -1.00, 933.3, 876.3)">l</text><text xml:space="preserve" font-family="Questrial-Regular,Questrial" font-size="56.0" fill="#FEFFFE" transform="matrix(1.00, 0.00, -0.00, -1.00, 944.7, 876.3)">o</text><text xml:space="preserve" font-family="Questrial-Regular,Questrial" font-size="56.0" fill="#FEFFFE" transform="matrix(1.00, 0.00, -0.00, -1.00, 976.3, 876.3)">r</text><text xml:space="preserve" font-family="Questrial-Regular,Questrial" font-size="56.0" fill="#FEFFFE" transform="matrix(1.00, 0.00, -0.00, -1.00, 995.6, 876.3)"> </text><text xml:space="preserve" font-family="Questrial-Regular,Questrial" font-size="56.0" fill="#FEFFFE" transform="matrix(1.00, 0.00, -0.00, -1.00, 1007.6, 876.3)">(</text><text xml:space="preserve" font-family="Questrial-Regular,Questrial" font-size="56.0" fill="#FEFFFE" transform="matrix(1.00, 0.00, -0.00, -1.00, 1021.3, 876.3)">2</text><text xml:space="preserve" font-family="Questrial-Regular,Questrial" font-size="56.0" fill="#FEFFFE" transform="matrix(1.00, 0.00, -0.00, -1.00, 1052.1, 876.3)">4</text><text xml:space="preserve" font-family="Questrial-Regular,Questrial" font-size="56.0" fill="#FEFFFE" transform="matrix(1.00, 0.00, -0.00, -1.00, 1082.9, 876.3)">-</text><text xml:space="preserve" font-family="Questrial-Regular,Questrial" font-size="56.0" fill="#FEFFFE" transform="matrix(1.00, 0.00, -0.00, -1.00, 1102.8, 876.3)">b</text><text xml:space="preserve" font-family="Questrial-Regular,Questrial" font-size="56.0" fill="#FEFFFE" transform="matrix(1.00, 0.00, -0.00, -1.00, 1136.1, 876.3)">i</text><text xml:space="preserve" font-family="Questrial-Regular,Questrial" font-size="56.0" fill="#FEFFFE" transform="matrix(1.00, 0.00, -0.00, -1.00, 1147.6, 876.3)">t</text><text xml:space="preserve" font-family="Questrial-Regular,Questrial" font-size="56.0" fill="#FEFFFE" transform="matrix(1.00, 0.00, -0.00, -1.00, 1165.2, 876.3)">)</text><text xml:space="preserve" font-family="Questrial-Regular,Questrial" font-size="56.0" fill="#FEFFFE" transform="matrix(1.00, 0.00, -0.00, -1.00, 1178.9, 876.3)"> </text><image xlink:href="87AFFC4A0F26BC84C7BC2F4A798E081E.png" width="412.00" height="49.00" transform="matrix(1.00, 0.00, -0.00, -1.00, 755.0, 860.0)"></image><text xml:space="preserve" font-family="Questrial-Regular,Questrial" font-size="56.0" fill="#FEFFFE" transform="matrix(1.00, 0.00, -0.00, -1.00, 755.7, 818.3)">m</text><text xml:space="preserve" font-family="Questrial-Regular,Questrial" font-size="56.0" fill="#FEFFFE" transform="matrix(1.00, 0.00, -0.00, -1.00, 804.3, 818.3)">i</text><text xml:space="preserve" font-family="Questrial-Regular,Questrial" font-size="56.0" fill="#FEFFFE" transform="matrix(1.00, 0.00, -0.00, -1.00, 815.8, 818.3)">l</text><text xml:space="preserve" font-family="Questrial-Regular,Questrial" font-size="56.0" fill="#FEFFFE" transform="matrix(1.00, 0.00, -0.00, -1.00, 827.3, 818.3)">l</text><text xml:space="preserve" font-family="Questrial-Regular,Questrial" font-size="56.0" fill="#FEFFFE" transform="matrix(1.00, 0.00, -0.00, -1.00, 838.8, 818.3)">i</text><text xml:space="preserve" font-family="Questrial-Regular,Questrial" font-size="56.0" fill="#FEFFFE" transform="matrix(1.00, 0.00, -0.00, -1.00, 850.3, 818.3)">o</text><text xml:space="preserve" font-family="Questrial-Regular,Questrial" font-size="56.0" fill="#FEFFFE" transform="matrix(1.00, 0.00, -0.00, -1.00, 881.9, 818.3)">n</text><text xml:space="preserve" font-family="Questrial-Regular,Questrial" font-size="56.0" fill="#FEFFFE" transform="matrix(1.00, 0.00, -0.00, -1.00, 913.5, 818.3)">s</text><text xml:space="preserve" font-family="Questrial-Regular,Questrial" font-size="56.0" fill="#FEFFFE" transform="matrix(1.00, 0.00, -0.00, -1.00, 940.5, 818.3)"> </text><text xml:space="preserve" font-family="Questrial-Regular,Questrial" font-size="56.0" fill="#FEFFFE" transform="matrix(1.00, 0.00, -0.00, -1.00, 952.5, 818.3)">o</text><text xml:space="preserve" font-family="Questrial-Regular,Questrial" font-size="56.0" fill="#FEFFFE" transform="matrix(1.00, 0.00, -0.00, -1.00, 983.7, 818.3)">f</text><text xml:space="preserve" font-family="Questrial-Regular,Questrial" font-size="56.0" fill="#FEFFFE" transform="matrix(1.00, 0.00, -0.00, -1.00, 1000.9, 818.3)"> </text><text xml:space="preserve" font-family="Questrial-Regular,Questrial" font-size="56.0" fill="#FEFFFE" transform="matrix(1.00, 0.00, -0.00, -1.00, 1012.8, 818.3)">c</text><text xml:space="preserve" font-family="Questrial-Regular,Questrial" font-size="56.0" fill="#FEFFFE" transform="matrix(1.00, 0.00, -0.00, -1.00, 1043.3, 818.3)">o</text><text xml:space="preserve" font-family="Questrial-Regular,Questrial" font-size="56.0" fill="#FEFFFE" transform="matrix(1.00, 0.00, -0.00, -1.00, 1074.9, 818.3)">l</text><text xml:space="preserve" font-family="Questrial-Regular,Questrial" font-size="56.0" fill="#FEFFFE" transform="matrix(1.00, 0.00, -0.00, -1.00, 1086.4, 818.3)">o</text><text xml:space="preserve" font-family="Questrial-Regular,Questrial" font-size="56.0" fill="#FEFFFE" transform="matrix(1.00, 0.00, -0.00, -1.00, 1117.9, 818.3)">r</text><text xml:space="preserve" font-family="Questrial-Regular,Questrial" font-size="56.0" fill="#FEFFFE" transform="matrix(1.00, 0.00, -0.00, -1.00, 1137.3, 818.3)">s</text><text xml:space="preserve" font-family="Questrial-Regular,Questrial" font-size="56.0" fill="#FEFFFE" transform="matrix(1.00, 0.00, -0.00, -1.00, 1164.3, 818.3)"> </text><image xlink:href="964FB8A4FF2A5E4584FC699FEB93C2BB.png" width="697.00" height="56.00" transform="matrix(1.00, 0.00, -0.00, -1.00, 612.0, 802.0)"></image><text xml:space="preserve" font-family="Questrial-Regular,Questrial" font-size="56.0" fill="#FEFFFE" transform="matrix(1.00, 0.00, -0.00, -1.00, 614.5, 760.3)">0</text><text xml:space="preserve" font-family="Questrial-Regular,Questrial" font-size="56.0" fill="#FEFFFE" transform="matrix(1.00, 0.00, -0.00, -1.00, 645.3, 760.3)">-</text><text xml:space="preserve" font-family="Questrial-Regular,Questrial" font-size="56.0" fill="#FEFFFE" transform="matrix(1.00, 0.00, -0.00, -1.00, 665.2, 760.3)">2</text><text xml:space="preserve" font-family="Questrial-Regular,Questrial" font-size="56.0" fill="#FEFFFE" transform="matrix(1.00, 0.00, -0.00, -1.00, 696.0, 760.3)">5</text><text xml:space="preserve" font-family="Questrial-Regular,Questrial" font-size="56.0" fill="#FEFFFE" transform="matrix(1.00, 0.00, -0.00, -1.00, 726.8, 760.3)">5</text><text xml:space="preserve" font-family="Questrial-Regular,Questrial" font-size="56.0" fill="#FEFFFE" transform="matrix(1.00, 0.00, -0.00, -1.00, 757.6, 760.3)"> </text><text xml:space="preserve" font-family="Questrial-Regular,Questrial" font-size="56.0" fill="#FEFFFE" transform="matrix(1.00, 0.00, -0.00, -1.00, 769.5, 760.3)">(</text><text xml:space="preserve" font-family="Questrial-Regular,Questrial" font-size="56.0" fill="#FEFFFE" transform="matrix(1.00, 0.00, -0.00, -1.00, 783.3, 760.3)">8</text><text xml:space="preserve" font-family="Questrial-Regular,Questrial" font-size="56.0" fill="#FEFFFE" transform="matrix(1.00, 0.00, -0.00, -1.00, 814.1, 760.3)"> </text><text xml:space="preserve" font-family="Questrial-Regular,Questrial" font-size="56.0" fill="#FEFFFE" transform="matrix(1.00, 0.00, -0.00, -1.00, 826.0, 760.3)">b</text><text xml:space="preserve" font-family="Questrial-Regular,Questrial" font-size="56.0" fill="#FEFFFE" transform="matrix(1.00, 0.00, -0.00, -1.00, 859.3, 760.3)">i</text><text xml:space="preserve" font-family="Questrial-Regular,Questrial" font-size="56.0" fill="#FEFFFE" transform="matrix(1.00, 0.00, -0.00, -1.00, 870.7, 760.3)">t</text><text xml:space="preserve" font-family="Questrial-Regular,Questrial" font-size="56.0" fill="#FEFFFE" transform="matrix(1.00, 0.00, -0.00, -1.00, 889.0, 760.3)">s</text><text xml:space="preserve" font-family="Questrial-Regular,Questrial" font-size="56.0" fill="#FEFFFE" transform="matrix(1.00, 0.00, -0.00, -1.00, 915.0, 760.3)">)</text><text xml:space="preserve" font-family="Questrial-Regular,Questrial" font-size="56.0" fill="#FEFFFE" transform="matrix(1.00, 0.00, -0.00, -1.00, 928.7, 760.3)"> </text><text xml:space="preserve" font-family="Questrial-Regular,Questrial" font-size="56.0" fill="#FEFFFE" transform="matrix(1.00, 0.00, -0.00, -1.00, 940.6, 760.3)">f</text><text xml:space="preserve" font-family="Questrial-Regular,Questrial" font-size="56.0" fill="#FEFFFE" transform="matrix(1.00, 0.00, -0.00, -1.00, 957.3, 760.3)">o</text><text xml:space="preserve" font-family="Questrial-Regular,Questrial" font-size="56.0" fill="#FEFFFE" transform="matrix(1.00, 0.00, -0.00, -1.00, 988.8, 760.3)">r</text><text xml:space="preserve" font-family="Questrial-Regular,Questrial" font-size="56.0" fill="#FEFFFE" transform="matrix(1.00, 0.00, -0.00, -1.00, 1008.2, 760.3)"> </text><text xml:space="preserve" font-family="Questrial-Regular,Questrial" font-size="56.0" fill="#FEFFFE" transform="matrix(1.00, 0.00, -0.00, -1.00, 1020.1, 760.3)">‘</text><text xml:space="preserve" font-family="Questrial-Regular,Questrial" font-size="56.0" fill="#FEFFFE" transform="matrix(1.00, 0.00, -0.00, -1.00, 1031.2, 760.3)">e</text><text xml:space="preserve" font-family="Questrial-Regular,Questrial" font-size="56.0" fill="#FEFFFE" transform="matrix(1.00, 0.00, -0.00, -1.00, 1062.4, 760.3)">a</text><text xml:space="preserve" font-family="Questrial-Regular,Questrial" font-size="56.0" fill="#FEFFFE" transform="matrix(1.00, 0.00, -0.00, -1.00, 1095.7, 760.3)">c</text><text xml:space="preserve" font-family="Questrial-Regular,Questrial" font-size="56.0" fill="#FEFFFE" transform="matrix(1.00, 0.00, -0.00, -1.00, 1126.2, 760.3)">h</text><text xml:space="preserve" font-family="Questrial-Regular,Questrial" font-size="56.0" fill="#FEFFFE" transform="matrix(1.00, 0.00, -0.00, -1.00, 1157.3, 760.3)">’</text><text xml:space="preserve" font-family="Questrial-Regular,Questrial" font-size="56.0" fill="#FEFFFE" transform="matrix(1.00, 0.00, -0.00, -1.00, 1169.2, 760.3)"> </text><text xml:space="preserve" font-family="Questrial-Regular,Questrial" font-size="56.0" fill="#FEFFFE" transform="matrix(1.00, 0.00, -0.00, -1.00, 1181.1, 760.3)">c</text><text xml:space="preserve" font-family="Questrial-Regular,Questrial" font-size="56.0" fill="#FEFFFE" transform="matrix(1.00, 0.00, -0.00, -1.00, 1211.6, 760.3)">o</text><text xml:space="preserve" font-family="Questrial-Regular,Questrial" font-size="56.0" fill="#FEFFFE" transform="matrix(1.00, 0.00, -0.00, -1.00, 1243.1, 760.3)">l</text><text xml:space="preserve" font-family="Questrial-Regular,Questrial" font-size="56.0" fill="#FEFFFE" transform="matrix(1.00, 0.00, -0.00, -1.00, 1254.6, 760.3)">o</text><text xml:space="preserve" font-family="Questrial-Regular,Questrial" font-size="56.0" fill="#FEFFFE" transform="matrix(1.00, 0.00, -0.00, -1.00, 1286.2, 760.3)">r</text><image xlink:href="8C2CF32C6051D7337F29B654FEF51A03.png" width="623.00" height="57.00" transform="matrix(1.00, 0.00, -0.00, -1.00, 648.0, 194.0)"></image><text xml:space="preserve" font-family="Questrial-Regular,Questrial" font-size="56.0" fill="#FEFFFE" transform="matrix(1.00, 0.00, -0.00, -1.00, 650.2, 151.4)">o</text><text xml:space="preserve" font-family="Questrial-Regular,Questrial" font-size="56.0" fill="#FEFFFE" transform="matrix(1.00, 0.00, -0.00, -1.00, 681.5, 151.4)">f</text><text xml:space="preserve" font-family="Questrial-Regular,Questrial" font-size="56.0" fill="#FEFFFE" transform="matrix(1.00, 0.00, -0.00, -1.00, 698.7, 151.4)">S</text><text xml:space="preserve" font-family="Questrial-Regular,Questrial" font-size="56.0" fill="#FEFFFE" transform="matrix(1.00, 0.00, -0.00, -1.00, 733.1, 151.4)">e</text><text xml:space="preserve" font-family="Questrial-Regular,Questrial" font-size="56.0" fill="#FEFFFE" transform="matrix(1.00, 0.00, -0.00, -1.00, 764.0, 151.4)">t</text><text xml:space="preserve" font-family="Questrial-Regular,Questrial" font-size="56.0" fill="#FEFFFE" transform="matrix(1.00, 0.00, -0.00, -1.00, 782.2, 151.4)">C</text><text xml:space="preserve" font-family="Questrial-Regular,Questrial" font-size="56.0" fill="#FEFFFE" transform="matrix(1.00, 0.00, -0.00, -1.00, 820.9, 151.4)">o</text><text xml:space="preserve" font-family="Questrial-Regular,Questrial" font-size="56.0" fill="#FEFFFE" transform="matrix(1.00, 0.00, -0.00, -1.00, 852.5, 151.4)">l</text><text xml:space="preserve" font-family="Questrial-Regular,Questrial" font-size="56.0" fill="#FEFFFE" transform="matrix(1.00, 0.00, -0.00, -1.00, 863.9, 151.4)">o</text><text xml:space="preserve" font-family="Questrial-Regular,Questrial" font-size="56.0" fill="#FEFFFE" transform="matrix(1.00, 0.00, -0.00, -1.00, 895.5, 151.4)">r</text><text xml:space="preserve" font-family="Questrial-Regular,Questrial" font-size="56.0" fill="#FEFFFE" transform="matrix(1.00, 0.00, -0.00, -1.00, 914.8, 151.4)">(</text><text xml:space="preserve" font-family="Questrial-Regular,Questrial" font-size="56.0" fill="#FEFFFE" transform="matrix(1.00, 0.00, -0.00, -1.00, 928.6, 151.4)">2</text><text xml:space="preserve" font-family="Questrial-Regular,Questrial" font-size="56.0" fill="#FEFFFE" transform="matrix(1.00, 0.00, -0.00, -1.00, 959.4, 151.4)">5</text><text xml:space="preserve" font-family="Questrial-Regular,Questrial" font-size="56.0" fill="#FEFFFE" transform="matrix(1.00, 0.00, -0.00, -1.00, 990.2, 151.4)">5</text><text xml:space="preserve" font-family="Questrial-Regular,Questrial" font-size="56.0" fill="#FEFFFE" transform="matrix(1.00, 0.00, -0.00, -1.00, 1021.0, 151.4)">,</text><text xml:space="preserve" font-family="Questrial-Regular,Questrial" font-size="56.0" fill="#FEFFFE" transform="matrix(1.00, 0.00, -0.00, -1.00, 1033.3, 151.4)"> </text><text xml:space="preserve" font-family="Questrial-Regular,Questrial" font-size="56.0" fill="#FEFFFE" transform="matrix(1.00, 0.00, -0.00, -1.00, 1045.2, 151.4)">2</text><text xml:space="preserve" font-family="Questrial-Regular,Questrial" font-size="56.0" fill="#FEFFFE" transform="matrix(1.00, 0.00, -0.00, -1.00, 1076.0, 151.4)">5</text><text xml:space="preserve" font-family="Questrial-Regular,Questrial" font-size="56.0" fill="#FEFFFE" transform="matrix(1.00, 0.00, -0.00, -1.00, 1106.8, 151.4)">5</text><text xml:space="preserve" font-family="Questrial-Regular,Questrial" font-size="56.0" fill="#FEFFFE" transform="matrix(1.00, 0.00, -0.00, -1.00, 1137.6, 151.4)">,</text><text xml:space="preserve" font-family="Questrial-Regular,Questrial" font-size="56.0" fill="#FEFFFE" transform="matrix(1.00, 0.00, -0.00, -1.00, 1149.9, 151.4)">2</text><text xml:space="preserve" font-family="Questrial-Regular,Questrial" font-size="56.0" fill="#FEFFFE" transform="matrix(1.00, 0.00, -0.00, -1.00, 1180.7, 151.4)">5</text><text xml:space="preserve" font-family="Questrial-Regular,Questrial" font-size="56.0" fill="#FEFFFE" transform="matrix(1.00, 0.00, -0.00, -1.00, 1211.5, 151.4)">5</text><text xml:space="preserve" font-family="Questrial-Regular,Questrial" font-size="56.0" fill="#FEFFFE" transform="matrix(1.00, 0.00, -0.00, -1.00, 1242.3, 151.4)">)</text><text xml:space="preserve" font-family="Questrial-Regular,Questrial" font-size="56.0" fill="#FEFFFE" transform="matrix(1.00, 0.00, -0.00, -1.00, 1256.0, 151.4)">;</text><image xlink:href="D4DCF1713AC7E3EB3208D9E3915145E6.png" width="450.00" height="286.00" transform="matrix(1.77, 0.00, -0.00, -1.77, 562.3, 742.2)"></image></g></svg>