<?xml version="1.0" encoding="UTF-8" standalone="no"?><svg xmlns="http://www.w3.org/2000/svg" xmlns:xlink="http://www.w3.org/1999/xlink" clip-rule="evenodd" stroke-miterlimit="10" viewBox="0 0 1920 1080"><desc>SVG generated by Keynote</desc><defs></defs><g transform="matrix(1.00, 0.00, -0.00, -1.00, 0.0, 1080.0)"><path d="M 0.0 1080.0 L 1920.0 1080.0 L 1920.0 0.0 L 0.0 0.0 Z M 0.0 1080.0 " fill="#CAB3AE"></path><image xlink:href="../../0099E750-43F4-4A1E-80C1-2076B752852F/assets/0C0EA084E1AF2779F0E9D4EB7E3BC579.jpeg" width="585.00" height="445.00" transform="matrix(2.51, 0.00, -0.00, -2.51, 227.2, 1097.4)"></image><image xlink:href="../../FEA57176-480F-4534-92C9-3F8435A7B4B9/assets/41ABFF7FA980E55872A2721DF9B2F699.png" width="276.00" height="78.00" transform="matrix(1.00, 0.00, -0.00, -1.00, 48.0, 180.0)"></image><text xml:space="preserve" font-family="Questrial-Regular,Questrial" font-size="34.0" fill="#FEFFFE" transform="matrix(1.00, 0.00, -0.00, -1.00, 74.3, 145.2)">W</text><text xml:space="preserve" font-family="Questrial-Regular,Questrial" font-size="34.0" fill="#FEFFFE" transform="matrix(1.00, 0.00, -0.00, -1.00, 105.8, 145.2)">o</text><text xml:space="preserve" font-family="Questrial-Regular,Questrial" font-size="34.0" fill="#FEFFFE" transform="matrix(1.00, 0.00, -0.00, -1.00, 124.9, 145.2)">o</text><text xml:space="preserve" font-family="Questrial-Regular,Questrial" font-size="34.0" fill="#FEFFFE" transform="matrix(1.00, 0.00, -0.00, -1.00, 144.1, 145.2)">d</text><text xml:space="preserve" font-family="Questrial-Regular,Questrial" font-size="34.0" fill="#FEFFFE" transform="matrix(1.00, 0.00, -0.00, -1.00, 164.4, 145.2)">e</text><text xml:space="preserve" font-family="Questrial-Regular,Questrial" font-size="34.0" fill="#FEFFFE" transform="matrix(1.00, 0.00, -0.00, -1.00, 183.3, 145.2)">n</text><text xml:space="preserve" font-family="Questrial-Regular,Questrial" font-size="34.0" fill="#FEFFFE" transform="matrix(1.00, 0.00, -0.00, -1.00, 202.5, 145.2)"> </text><text xml:space="preserve" font-family="Questrial-Regular,Questrial" font-size="34.0" fill="#FEFFFE" transform="matrix(1.00, 0.00, -0.00, -1.00, 209.8, 145.2)">M</text><text xml:space="preserve" font-family="Questrial-Regular,Questrial" font-size="34.0" fill="#FEFFFE" transform="matrix(1.00, 0.00, -0.00, -1.00, 237.0, 145.2)">i</text><text xml:space="preserve" font-family="Questrial-Regular,Questrial" font-size="34.0" fill="#FEFFFE" transform="matrix(1.00, 0.00, -0.00, -1.00, 244.0, 145.2)">r</text><text xml:space="preserve" font-family="Questrial-Regular,Questrial" font-size="34.0" fill="#FEFFFE" transform="matrix(1.00, 0.00, -0.00, -1.00, 255.7, 145.2)">r</text><text xml:space="preserve" font-family="Questrial-Regular,Questrial" font-size="34.0" fill="#FEFFFE" transform="matrix(1.00, 0.00, -0.00, -1.00, 267.0, 145.2)">o</text><text xml:space="preserve" font-family="Questrial-Regular,Questrial" font-size="34.0" fill="#FEFFFE" transform="matrix(1.00, 0.00, -0.00, -1.00, 286.2, 145.2)">r</text><text xml:space="preserve" font-family="Questrial-Regular,Questrial" font-size="34.0" fill="#FEFFFE" transform="matrix(1.00, 0.00, -0.00, -1.00, 297.9, 145.2)"> </text><image xlink:href="../../FEA57176-480F-4534-92C9-3F8435A7B4B9/assets/57EA4EE89EDBA8112BD546A2A1B0A51D.png" width="203.00" height="73.00" transform="matrix(1.00, 0.00, -0.00, -1.00, 50.0, 145.0)"></image><text xml:space="preserve" font-family="Questrial-Regular,Questrial" font-size="28.0" fill="#FEFFFE" transform="matrix(1.00, 0.00, -0.00, -1.00, 74.3, 114.9)">D</text><text xml:space="preserve" font-family="Questrial-Regular,Questrial" font-size="28.0" fill="#FEFFFE" transform="matrix(1.00, 0.00, -0.00, -1.00, 94.0, 114.9)">a</text><text xml:space="preserve" font-family="Questrial-Regular,Questrial" font-size="28.0" fill="#FEFFFE" transform="matrix(1.00, 0.00, -0.00, -1.00, 110.7, 114.9)">n</text><text xml:space="preserve" font-family="Questrial-Regular,Questrial" font-size="28.0" fill="#FEFFFE" transform="matrix(1.00, 0.00, -0.00, -1.00, 126.5, 114.9)">i</text><text xml:space="preserve" font-family="Questrial-Regular,Questrial" font-size="28.0" fill="#FEFFFE" transform="matrix(1.00, 0.00, -0.00, -1.00, 132.3, 114.9)">e</text><text xml:space="preserve" font-family="Questrial-Regular,Questrial" font-size="28.0" fill="#FEFFFE" transform="matrix(1.00, 0.00, -0.00, -1.00, 147.9, 114.9)">l</text><text xml:space="preserve" font-family="Questrial-Regular,Questrial" font-size="28.0" fill="#FEFFFE" transform="matrix(1.00, 0.00, -0.00, -1.00, 153.6, 114.9)"> </text><text xml:space="preserve" font-family="Questrial-Regular,Questrial" font-size="28.0" fill="#FEFFFE" transform="matrix(1.00, 0.00, -0.00, -1.00, 159.6, 114.9)">R</text><text xml:space="preserve" font-family="Questrial-Regular,Questrial" font-size="28.0" fill="#FEFFFE" transform="matrix(1.00, 0.00, -0.00, -1.00, 178.0, 114.9)">o</text><text xml:space="preserve" font-family="Questrial-Regular,Questrial" font-size="28.0" fill="#FEFFFE" transform="matrix(1.00, 0.00, -0.00, -1.00, 193.6, 114.9)">z</text><text xml:space="preserve" font-family="Questrial-Regular,Questrial" font-size="28.0" fill="#FEFFFE" transform="matrix(1.00, 0.00, -0.00, -1.00, 206.4, 114.9)">i</text><text xml:space="preserve" font-family="Questrial-Regular,Questrial" font-size="28.0" fill="#FEFFFE" transform="matrix(1.00, 0.00, -0.00, -1.00, 212.2, 114.9)">n</text><text xml:space="preserve" font-family="Questrial-Regular,Questrial" font-size="28.0" fill="#FEFFFE" transform="matrix(1.00, 0.00, -0.00, -1.00, 228.0, 114.9)"> </text><image xlink:href="../../FEA57176-480F-4534-92C9-3F8435A7B4B9/assets/9C5432C43BD0B5EA9C8520B24F8C22CB.png" width="391.00" height="78.00" transform="matrix(1.00, 0.00, -0.00, -1.00, 50.0, 116.0)"></image><text xml:space="preserve" font-family="Questrial-Regular,Questrial" font-size="28.0" fill="#FEFFFE" transform="matrix(1.00, 0.00, -0.00, -1.00, 74.3, 85.9)">h</text><text xml:space="preserve" font-family="Questrial-Regular,Questrial" font-size="28.0" fill="#FEFFFE" transform="matrix(1.00, 0.00, -0.00, -1.00, 89.8, 85.9)">t</text><text xml:space="preserve" font-family="Questrial-Regular,Questrial" font-size="28.0" fill="#FEFFFE" transform="matrix(1.00, 0.00, -0.00, -1.00, 99.0, 85.9)">t</text><text xml:space="preserve" font-family="Questrial-Regular,Questrial" font-size="28.0" fill="#FEFFFE" transform="matrix(1.00, 0.00, -0.00, -1.00, 108.1, 85.9)">p</text><text xml:space="preserve" font-family="Questrial-Regular,Questrial" font-size="28.0" fill="#FEFFFE" transform="matrix(1.00, 0.00, -0.00, -1.00, 124.7, 85.9)">s</text><text xml:space="preserve" font-family="Questrial-Regular,Questrial" font-size="28.0" fill="#FEFFFE" transform="matrix(1.00, 0.00, -0.00, -1.00, 138.2, 85.9)">:</text><text xml:space="preserve" font-family="Questrial-Regular,Questrial" font-size="28.0" fill="#FEFFFE" transform="matrix(1.00, 0.00, -0.00, -1.00, 143.9, 85.9)">/</text><text xml:space="preserve" font-family="Questrial-Regular,Questrial" font-size="28.0" fill="#FEFFFE" transform="matrix(1.00, 0.00, -0.00, -1.00, 150.5, 85.9)">/</text><text xml:space="preserve" font-family="Questrial-Regular,Questrial" font-size="28.0" fill="#FEFFFE" transform="matrix(1.00, 0.00, -0.00, -1.00, 160.9, 85.9)">v</text><text xml:space="preserve" font-family="Questrial-Regular,Questrial" font-size="28.0" fill="#FEFFFE" transform="matrix(1.00, 0.00, -0.00, -1.00, 174.6, 85.9)">i</text><text xml:space="preserve" font-family="Questrial-Regular,Questrial" font-size="28.0" fill="#FEFFFE" transform="matrix(1.00, 0.00, -0.00, -1.00, 180.3, 85.9)">m</text><text xml:space="preserve" font-family="Questrial-Regular,Questrial" font-size="28.0" fill="#FEFFFE" transform="matrix(1.00, 0.00, -0.00, -1.00, 204.6, 85.9)">e</text><text xml:space="preserve" font-family="Questrial-Regular,Questrial" font-size="28.0" fill="#FEFFFE" transform="matrix(1.00, 0.00, -0.00, -1.00, 220.2, 85.9)">o</text><text xml:space="preserve" font-family="Questrial-Regular,Questrial" font-size="28.0" fill="#FEFFFE" transform="matrix(1.00, 0.00, -0.00, -1.00, 236.0, 85.9)">.</text><text xml:space="preserve" font-family="Questrial-Regular,Questrial" font-size="28.0" fill="#FEFFFE" transform="matrix(1.00, 0.00, -0.00, -1.00, 241.7, 85.9)">c</text><text xml:space="preserve" font-family="Questrial-Regular,Questrial" font-size="28.0" fill="#FEFFFE" transform="matrix(1.00, 0.00, -0.00, -1.00, 256.9, 85.9)">o</text><text xml:space="preserve" font-family="Questrial-Regular,Questrial" font-size="28.0" fill="#FEFFFE" transform="matrix(1.00, 0.00, -0.00, -1.00, 272.7, 85.9)">m</text><text xml:space="preserve" font-family="Questrial-Regular,Questrial" font-size="28.0" fill="#FEFFFE" transform="matrix(1.00, 0.00, -0.00, -1.00, 297.0, 85.9)">/</text><text xml:space="preserve" font-family="Questrial-Regular,Questrial" font-size="28.0" fill="#FEFFFE" transform="matrix(1.00, 0.00, -0.00, -1.00, 307.4, 85.9)">7</text><text xml:space="preserve" font-family="Questrial-Regular,Questrial" font-size="28.0" fill="#FEFFFE" transform="matrix(1.00, 0.00, -0.00, -1.00, 322.8, 85.9)">8</text><text xml:space="preserve" font-family="Questrial-Regular,Questrial" font-size="28.0" fill="#FEFFFE" transform="matrix(1.00, 0.00, -0.00, -1.00, 338.2, 85.9)">2</text><text xml:space="preserve" font-family="Questrial-Regular,Questrial" font-size="28.0" fill="#FEFFFE" transform="matrix(1.00, 0.00, -0.00, -1.00, 353.6, 85.9)">0</text><text xml:space="preserve" font-family="Questrial-Regular,Questrial" font-size="28.0" fill="#FEFFFE" transform="matrix(1.00, 0.00, -0.00, -1.00, 369.0, 85.9)">8</text><text xml:space="preserve" font-family="Questrial-Regular,Questrial" font-size="28.0" fill="#FEFFFE" transform="matrix(1.00, 0.00, -0.00, -1.00, 384.4, 85.9)">8</text><text xml:space="preserve" font-family="Questrial-Regular,Questrial" font-size="28.0" fill="#FEFFFE" transform="matrix(1.00, 0.00, -0.00, -1.00, 399.8, 85.9)">8</text><image xlink:href="../../FEA57176-480F-4534-92C9-3F8435A7B4B9/assets/30C8F14304AEDB946F6FC6CC475963E1.png" width="343.00" height="4.00" transform="matrix(1.00, 0.00, -0.00, -1.00, 73.0, 85.0)"></image><g><clipPath id="clip0x6180008b34a0"><path d="M 73.3 81.1 L 415.2 81.1 L 415.2 85.0 L 73.3 85.0 Z M 73.3 81.1 "></path></clipPath><g clip-path="url(#clip0x6180008b34a0)"><path d="M 5.6 95.7 L 346.5 95.7 " fill="none" stroke="#FEFFFE" stroke-width="1.90" transform="matrix(1.00, 0.00, 0.00, -1.00, 68.7, 178.7)"></path></g></g></g></svg>