<?xml version="1.0" encoding="UTF-8" standalone="no"?><svg xmlns="http://www.w3.org/2000/svg" xmlns:xlink="http://www.w3.org/1999/xlink" clip-rule="evenodd" stroke-miterlimit="10" viewBox="0 0 1920 1080"><desc>SVG generated by Keynote</desc><defs></defs><g transform="matrix(1.00, 0.00, -0.00, -1.00, 0.0, 1080.0)"><path d="M 0.0 1080.0 L 1920.0 1080.0 L 1920.0 0.0 L 0.0 0.0 Z M 0.0 1080.0 " fill="#FEFFFF"></path><image xlink:href="D117C9163F5E0F073B77828C78819042.jpeg" width="525.00" height="382.00" transform="matrix(3.83, 0.00, -0.00, -3.83, -45.4, 1329.7)"></image><image xlink:href="F001F4F0BC0A6C19D246723768899AF5.png" width="274.00" height="84.00" transform="matrix(1.00, 0.00, -0.00, -1.00, 51.0, 180.0)"></image><text xml:space="preserve" font-family="Questrial-Regular,Questrial" font-size="34.0" fill="#FEFFFE" transform="matrix(1.00, 0.00, -0.00, -1.00, 74.3, 145.2)">H</text><text xml:space="preserve" font-family="Questrial-Regular,Questrial" font-size="34.0" fill="#FEFFFE" transform="matrix(1.00, 0.00, -0.00, -1.00, 97.7, 145.2)">o</text><text xml:space="preserve" font-family="Questrial-Regular,Questrial" font-size="34.0" fill="#FEFFFE" transform="matrix(1.00, 0.00, -0.00, -1.00, 116.9, 145.2)">m</text><text xml:space="preserve" font-family="Questrial-Regular,Questrial" font-size="34.0" fill="#FEFFFE" transform="matrix(1.00, 0.00, -0.00, -1.00, 146.4, 145.2)">o</text><text xml:space="preserve" font-family="Questrial-Regular,Questrial" font-size="34.0" fill="#FEFFFE" transform="matrix(1.00, 0.00, -0.00, -1.00, 165.6, 145.2)">g</text><text xml:space="preserve" font-family="Questrial-Regular,Questrial" font-size="34.0" fill="#FEFFFE" transform="matrix(1.00, 0.00, -0.00, -1.00, 185.8, 145.2)">r</text><text xml:space="preserve" font-family="Questrial-Regular,Questrial" font-size="34.0" fill="#FEFFFE" transform="matrix(1.00, 0.00, -0.00, -1.00, 197.1, 145.2)">a</text><text xml:space="preserve" font-family="Questrial-Regular,Questrial" font-size="34.0" fill="#FEFFFE" transform="matrix(1.00, 0.00, -0.00, -1.00, 217.3, 145.2)">p</text><text xml:space="preserve" font-family="Questrial-Regular,Questrial" font-size="34.0" fill="#FEFFFE" transform="matrix(1.00, 0.00, -0.00, -1.00, 237.5, 145.2)">h</text><text xml:space="preserve" font-family="Questrial-Regular,Questrial" font-size="34.0" fill="#FEFFFE" transform="matrix(1.00, 0.00, -0.00, -1.00, 256.8, 145.2)">i</text><text xml:space="preserve" font-family="Questrial-Regular,Questrial" font-size="34.0" fill="#FEFFFE" transform="matrix(1.00, 0.00, -0.00, -1.00, 263.7, 145.2)">e</text><text xml:space="preserve" font-family="Questrial-Regular,Questrial" font-size="34.0" fill="#FEFFFE" transform="matrix(1.00, 0.00, -0.00, -1.00, 282.7, 145.2)">s</text><text xml:space="preserve" font-family="Questrial-Regular,Questrial" font-size="34.0" fill="#FEFFFE" transform="matrix(1.00, 0.00, -0.00, -1.00, 299.1, 145.2)"> </text><image xlink:href="B0EBD6654021FAB90C6C9C5EB5F7EA33.png" width="348.00" height="73.00" transform="matrix(1.00, 0.00, -0.00, -1.00, 50.0, 145.0)"></image><text xml:space="preserve" font-family="Questrial-Regular,Questrial" font-size="28.0" fill="#FEFFFE" transform="matrix(1.00, 0.00, -0.00, -1.00, 74.3, 114.9)">R</text><text xml:space="preserve" font-family="Questrial-Regular,Questrial" font-size="28.0" fill="#FEFFFE" transform="matrix(1.00, 0.00, -0.00, -1.00, 92.7, 114.9)">a</text><text xml:space="preserve" font-family="Questrial-Regular,Questrial" font-size="28.0" fill="#FEFFFE" transform="matrix(1.00, 0.00, -0.00, -1.00, 109.4, 114.9)">f</text><text xml:space="preserve" font-family="Questrial-Regular,Questrial" font-size="28.0" fill="#FEFFFE" transform="matrix(1.00, 0.00, -0.00, -1.00, 117.7, 114.9)">a</text><text xml:space="preserve" font-family="Questrial-Regular,Questrial" font-size="28.0" fill="#FEFFFE" transform="matrix(1.00, 0.00, -0.00, -1.00, 134.4, 114.9)">e</text><text xml:space="preserve" font-family="Questrial-Regular,Questrial" font-size="28.0" fill="#FEFFFE" transform="matrix(1.00, 0.00, -0.00, -1.00, 149.9, 114.9)">l</text><text xml:space="preserve" font-family="Questrial-Regular,Questrial" font-size="28.0" fill="#FEFFFE" transform="matrix(1.00, 0.00, -0.00, -1.00, 155.7, 114.9)"> </text><text xml:space="preserve" font-family="Questrial-Regular,Questrial" font-size="28.0" fill="#FEFFFE" transform="matrix(1.00, 0.00, -0.00, -1.00, 161.7, 114.9)">L</text><text xml:space="preserve" font-family="Questrial-Regular,Questrial" font-size="28.0" fill="#FEFFFE" transform="matrix(1.00, 0.00, -0.00, -1.00, 176.3, 114.9)">o</text><text xml:space="preserve" font-family="Questrial-Regular,Questrial" font-size="28.0" fill="#FEFFFE" transform="matrix(1.00, 0.00, -0.00, -1.00, 191.9, 114.9)">z</text><text xml:space="preserve" font-family="Questrial-Regular,Questrial" font-size="28.0" fill="#FEFFFE" transform="matrix(1.00, 0.00, -0.00, -1.00, 204.5, 114.9)">a</text><text xml:space="preserve" font-family="Questrial-Regular,Questrial" font-size="28.0" fill="#FEFFFE" transform="matrix(1.00, 0.00, -0.00, -1.00, 221.2, 114.9)">n</text><text xml:space="preserve" font-family="Questrial-Regular,Questrial" font-size="28.0" fill="#FEFFFE" transform="matrix(1.00, 0.00, -0.00, -1.00, 237.1, 114.9)">o</text><text xml:space="preserve" font-family="Questrial-Regular,Questrial" font-size="28.0" fill="#FEFFFE" transform="matrix(1.00, 0.00, -0.00, -1.00, 252.8, 114.9)">-</text><text xml:space="preserve" font-family="Questrial-Regular,Questrial" font-size="28.0" fill="#FEFFFE" transform="matrix(1.00, 0.00, -0.00, -1.00, 262.8, 114.9)">H</text><text xml:space="preserve" font-family="Questrial-Regular,Questrial" font-size="28.0" fill="#FEFFFE" transform="matrix(1.00, 0.00, -0.00, -1.00, 282.1, 114.9)">e</text><text xml:space="preserve" font-family="Questrial-Regular,Questrial" font-size="28.0" fill="#FEFFFE" transform="matrix(1.00, 0.00, -0.00, -1.00, 297.7, 114.9)">m</text><text xml:space="preserve" font-family="Questrial-Regular,Questrial" font-size="28.0" fill="#FEFFFE" transform="matrix(1.00, 0.00, -0.00, -1.00, 322.0, 114.9)">m</text><text xml:space="preserve" font-family="Questrial-Regular,Questrial" font-size="28.0" fill="#FEFFFE" transform="matrix(1.00, 0.00, -0.00, -1.00, 346.3, 114.9)">e</text><text xml:space="preserve" font-family="Questrial-Regular,Questrial" font-size="28.0" fill="#FEFFFE" transform="matrix(1.00, 0.00, -0.00, -1.00, 361.9, 114.9)">r</text><text xml:space="preserve" font-family="Questrial-Regular,Questrial" font-size="28.0" fill="#FEFFFE" transform="matrix(1.00, 0.00, -0.00, -1.00, 371.5, 114.9)"> </text><image xlink:href="C4C7AB94D01BA74C037F9463F1EB77F8.png" width="696.00" height="78.00" transform="matrix(1.00, 0.00, -0.00, -1.00, 50.0, 116.0)"></image><text xml:space="preserve" font-family="Questrial-Regular,Questrial" font-size="28.0" fill="#FEFFFE" transform="matrix(1.00, 0.00, -0.00, -1.00, 74.3, 85.9)">h</text><text xml:space="preserve" font-family="Questrial-Regular,Questrial" font-size="28.0" fill="#FEFFFE" transform="matrix(1.00, 0.00, -0.00, -1.00, 89.8, 85.9)">t</text><text xml:space="preserve" font-family="Questrial-Regular,Questrial" font-size="28.0" fill="#FEFFFE" transform="matrix(1.00, 0.00, -0.00, -1.00, 99.0, 85.9)">t</text><text xml:space="preserve" font-family="Questrial-Regular,Questrial" font-size="28.0" fill="#FEFFFE" transform="matrix(1.00, 0.00, -0.00, -1.00, 108.1, 85.9)">p</text><text xml:space="preserve" font-family="Questrial-Regular,Questrial" font-size="28.0" fill="#FEFFFE" transform="matrix(1.00, 0.00, -0.00, -1.00, 124.7, 85.9)">:</text><text xml:space="preserve" font-family="Questrial-Regular,Questrial" font-size="28.0" fill="#FEFFFE" transform="matrix(1.00, 0.00, -0.00, -1.00, 130.4, 85.9)">/</text><text xml:space="preserve" font-family="Questrial-Regular,Questrial" font-size="28.0" fill="#FEFFFE" transform="matrix(1.00, 0.00, -0.00, -1.00, 137.0, 85.9)">/</text><text xml:space="preserve" font-family="Questrial-Regular,Questrial" font-size="28.0" fill="#FEFFFE" transform="matrix(1.00, 0.00, -0.00, -1.00, 147.4, 85.9)">w</text><text xml:space="preserve" font-family="Questrial-Regular,Questrial" font-size="28.0" fill="#FEFFFE" transform="matrix(1.00, 0.00, -0.00, -1.00, 168.5, 85.9)">w</text><text xml:space="preserve" font-family="Questrial-Regular,Questrial" font-size="28.0" fill="#FEFFFE" transform="matrix(1.00, 0.00, -0.00, -1.00, 189.6, 85.9)">w</text><text xml:space="preserve" font-family="Questrial-Regular,Questrial" font-size="28.0" fill="#FEFFFE" transform="matrix(1.00, 0.00, -0.00, -1.00, 210.2, 85.9)">.</text><text xml:space="preserve" font-family="Questrial-Regular,Questrial" font-size="28.0" fill="#FEFFFE" transform="matrix(1.00, 0.00, -0.00, -1.00, 215.9, 85.9)">l</text><text xml:space="preserve" font-family="Questrial-Regular,Questrial" font-size="28.0" fill="#FEFFFE" transform="matrix(1.00, 0.00, -0.00, -1.00, 221.6, 85.9)">o</text><text xml:space="preserve" font-family="Questrial-Regular,Questrial" font-size="28.0" fill="#FEFFFE" transform="matrix(1.00, 0.00, -0.00, -1.00, 237.2, 85.9)">z</text><text xml:space="preserve" font-family="Questrial-Regular,Questrial" font-size="28.0" fill="#FEFFFE" transform="matrix(1.00, 0.00, -0.00, -1.00, 249.9, 85.9)">a</text><text xml:space="preserve" font-family="Questrial-Regular,Questrial" font-size="28.0" fill="#FEFFFE" transform="matrix(1.00, 0.00, -0.00, -1.00, 266.5, 85.9)">n</text><text xml:space="preserve" font-family="Questrial-Regular,Questrial" font-size="28.0" fill="#FEFFFE" transform="matrix(1.00, 0.00, -0.00, -1.00, 282.4, 85.9)">o</text><text xml:space="preserve" font-family="Questrial-Regular,Questrial" font-size="28.0" fill="#FEFFFE" transform="matrix(1.00, 0.00, -0.00, -1.00, 298.2, 85.9)">-</text><text xml:space="preserve" font-family="Questrial-Regular,Questrial" font-size="28.0" fill="#FEFFFE" transform="matrix(1.00, 0.00, -0.00, -1.00, 308.1, 85.9)">h</text><text xml:space="preserve" font-family="Questrial-Regular,Questrial" font-size="28.0" fill="#FEFFFE" transform="matrix(1.00, 0.00, -0.00, -1.00, 324.0, 85.9)">e</text><text xml:space="preserve" font-family="Questrial-Regular,Questrial" font-size="28.0" fill="#FEFFFE" transform="matrix(1.00, 0.00, -0.00, -1.00, 339.6, 85.9)">m</text><text xml:space="preserve" font-family="Questrial-Regular,Questrial" font-size="28.0" fill="#FEFFFE" transform="matrix(1.00, 0.00, -0.00, -1.00, 363.9, 85.9)">m</text><text xml:space="preserve" font-family="Questrial-Regular,Questrial" font-size="28.0" fill="#FEFFFE" transform="matrix(1.00, 0.00, -0.00, -1.00, 388.2, 85.9)">e</text><text xml:space="preserve" font-family="Questrial-Regular,Questrial" font-size="28.0" fill="#FEFFFE" transform="matrix(1.00, 0.00, -0.00, -1.00, 403.8, 85.9)">r</text><text xml:space="preserve" font-family="Questrial-Regular,Questrial" font-size="28.0" fill="#FEFFFE" transform="matrix(1.00, 0.00, -0.00, -1.00, 412.2, 85.9)">.</text><text xml:space="preserve" font-family="Questrial-Regular,Questrial" font-size="28.0" fill="#FEFFFE" transform="matrix(1.00, 0.00, -0.00, -1.00, 417.9, 85.9)">c</text><text xml:space="preserve" font-family="Questrial-Regular,Questrial" font-size="28.0" fill="#FEFFFE" transform="matrix(1.00, 0.00, -0.00, -1.00, 433.1, 85.9)">o</text><text xml:space="preserve" font-family="Questrial-Regular,Questrial" font-size="28.0" fill="#FEFFFE" transform="matrix(1.00, 0.00, -0.00, -1.00, 448.9, 85.9)">m</text><text xml:space="preserve" font-family="Questrial-Regular,Questrial" font-size="28.0" fill="#FEFFFE" transform="matrix(1.00, 0.00, -0.00, -1.00, 473.2, 85.9)">/</text><text xml:space="preserve" font-family="Questrial-Regular,Questrial" font-size="28.0" fill="#FEFFFE" transform="matrix(1.00, 0.00, -0.00, -1.00, 483.6, 85.9)">h</text><text xml:space="preserve" font-family="Questrial-Regular,Questrial" font-size="28.0" fill="#FEFFFE" transform="matrix(1.00, 0.00, -0.00, -1.00, 499.4, 85.9)">o</text><text xml:space="preserve" font-family="Questrial-Regular,Questrial" font-size="28.0" fill="#FEFFFE" transform="matrix(1.00, 0.00, -0.00, -1.00, 515.2, 85.9)">m</text><text xml:space="preserve" font-family="Questrial-Regular,Questrial" font-size="28.0" fill="#FEFFFE" transform="matrix(1.00, 0.00, -0.00, -1.00, 539.5, 85.9)">o</text><text xml:space="preserve" font-family="Questrial-Regular,Questrial" font-size="28.0" fill="#FEFFFE" transform="matrix(1.00, 0.00, -0.00, -1.00, 555.3, 85.9)">g</text><text xml:space="preserve" font-family="Questrial-Regular,Questrial" font-size="28.0" fill="#FEFFFE" transform="matrix(1.00, 0.00, -0.00, -1.00, 572.0, 85.9)">r</text><text xml:space="preserve" font-family="Questrial-Regular,Questrial" font-size="28.0" fill="#FEFFFE" transform="matrix(1.00, 0.00, -0.00, -1.00, 581.3, 85.9)">a</text><text xml:space="preserve" font-family="Questrial-Regular,Questrial" font-size="28.0" fill="#FEFFFE" transform="matrix(1.00, 0.00, -0.00, -1.00, 597.9, 85.9)">p</text><text xml:space="preserve" font-family="Questrial-Regular,Questrial" font-size="28.0" fill="#FEFFFE" transform="matrix(1.00, 0.00, -0.00, -1.00, 614.6, 85.9)">h</text><text xml:space="preserve" font-family="Questrial-Regular,Questrial" font-size="28.0" fill="#FEFFFE" transform="matrix(1.00, 0.00, -0.00, -1.00, 630.4, 85.9)">i</text><text xml:space="preserve" font-family="Questrial-Regular,Questrial" font-size="28.0" fill="#FEFFFE" transform="matrix(1.00, 0.00, -0.00, -1.00, 636.2, 85.9)">e</text><text xml:space="preserve" font-family="Questrial-Regular,Questrial" font-size="28.0" fill="#FEFFFE" transform="matrix(1.00, 0.00, -0.00, -1.00, 651.8, 85.9)">s</text><text xml:space="preserve" font-family="Questrial-Regular,Questrial" font-size="28.0" fill="#FEFFFE" transform="matrix(1.00, 0.00, -0.00, -1.00, 665.3, 85.9)">.</text><text xml:space="preserve" font-family="Questrial-Regular,Questrial" font-size="28.0" fill="#FEFFFE" transform="matrix(1.00, 0.00, -0.00, -1.00, 670.9, 85.9)">p</text><text xml:space="preserve" font-family="Questrial-Regular,Questrial" font-size="28.0" fill="#FEFFFE" transform="matrix(1.00, 0.00, -0.00, -1.00, 687.6, 85.9)">h</text><text xml:space="preserve" font-family="Questrial-Regular,Questrial" font-size="28.0" fill="#FEFFFE" transform="matrix(1.00, 0.00, -0.00, -1.00, 703.4, 85.9)">p</text><image xlink:href="3C03CFE43913B3956A55E69FC70FAC96.png" width="648.00" height="4.00" transform="matrix(1.00, 0.00, -0.00, -1.00, 73.0, 85.0)"></image><g><clipPath id="clip0x610000aa87c0"><path d="M 73.3 81.1 L 720.1 81.1 L 720.1 85.0 L 73.3 85.0 Z M 73.3 81.1 "></path></clipPath><g clip-path="url(#clip0x610000aa87c0)"><path d="M 5.6 95.7 L 651.4 95.7 " fill="none" stroke="#FEFFFE" stroke-width="1.90" transform="matrix(1.00, 0.00, 0.00, -1.00, 68.7, 178.7)"></path></g></g></g></svg>