<?xml version="1.0" encoding="UTF-8" standalone="no"?><svg xmlns="http://www.w3.org/2000/svg" xmlns:xlink="http://www.w3.org/1999/xlink" clip-rule="evenodd" stroke-miterlimit="10" viewBox="0 0 438 55"><desc>SVG generated by Keynote</desc><defs></defs><g transform="matrix(1.00, 0.00, -0.00, -1.00, 0.0, 55.0)"><text xml:space="preserve" font-family="Questrial-Regular,Questrial" font-size="56.0" fill="#000000" transform="matrix(1.00, 0.00, -0.00, -1.00, 0.1, 13.2)">o</text><text xml:space="preserve" font-family="Questrial-Regular,Questrial" font-size="56.0" fill="#000000" transform="matrix(1.00, 0.00, -0.00, -1.00, 31.7, 13.2)">p</text><text xml:space="preserve" font-family="Questrial-Regular,Questrial" font-size="56.0" fill="#000000" transform="matrix(1.00, 0.00, -0.00, -1.00, 65.0, 13.2)">e</text><text xml:space="preserve" font-family="Questrial-Regular,Questrial" font-size="56.0" fill="#000000" transform="matrix(1.00, 0.00, -0.00, -1.00, 96.1, 13.2)">n</text><text xml:space="preserve" font-family="Questrial-Regular,Questrial" font-size="56.0" fill="#000000" transform="matrix(1.00, 0.00, -0.00, -1.00, 127.4, 13.2)">F</text><text xml:space="preserve" font-family="Questrial-Regular,Questrial" font-size="56.0" fill="#000000" transform="matrix(1.00, 0.00, -0.00, -1.00, 158.6, 13.2)">r</text><text xml:space="preserve" font-family="Questrial-Regular,Questrial" font-size="56.0" fill="#000000" transform="matrix(1.00, 0.00, -0.00, -1.00, 177.2, 13.2)">a</text><text xml:space="preserve" font-family="Questrial-Regular,Questrial" font-size="56.0" fill="#000000" transform="matrix(1.00, 0.00, -0.00, -1.00, 210.6, 13.2)">m</text><text xml:space="preserve" font-family="Questrial-Regular,Questrial" font-size="56.0" fill="#000000" transform="matrix(1.00, 0.00, -0.00, -1.00, 259.2, 13.2)">e</text><text xml:space="preserve" font-family="Questrial-Regular,Questrial" font-size="56.0" fill="#000000" transform="matrix(1.00, 0.00, -0.00, -1.00, 290.4, 13.2)">w</text><text xml:space="preserve" font-family="Questrial-Regular,Questrial" font-size="56.0" fill="#000000" transform="matrix(1.00, 0.00, -0.00, -1.00, 332.4, 13.2)">o</text><text xml:space="preserve" font-family="Questrial-Regular,Questrial" font-size="56.0" fill="#000000" transform="matrix(1.00, 0.00, -0.00, -1.00, 363.9, 13.2)">r</text><text xml:space="preserve" font-family="Questrial-Regular,Questrial" font-size="56.0" fill="#000000" transform="matrix(1.00, 0.00, -0.00, -1.00, 383.3, 13.2)">k</text><text xml:space="preserve" font-family="Questrial-Regular,Questrial" font-size="56.0" fill="#000000" transform="matrix(1.00, 0.00, -0.00, -1.00, 410.6, 13.2)">s</text></g></svg>